<svg width="27" height="27" viewBox="0 0 27 27" xmlns="http://www.w3.org/2000/svg"><path d="M13.402 14.548h.179c1.638-.028 2.963-.604 3.942-1.705 2.153-2.427 1.795-6.586 1.756-6.983-.14-2.98-1.55-4.406-2.712-5.072C15.7.291 14.688.022 13.559 0h-.095c-.62 0-1.84.1-3.008.766C9.282 1.431 7.85 2.857 7.71 5.86c-.039.397-.397 4.556 1.756 6.983.973 1.101 2.298 1.677 3.936 1.705zM9.203 6c0-.016.006-.033.006-.044.184-4.01 3.03-4.44 4.25-4.44h.066c1.51.034 4.076.649 4.25 4.44 0 .016 0 .033.005.044.006.04.397 3.842-1.38 5.843-.705.794-1.645 1.185-2.88 1.197h-.056c-1.23-.011-2.175-.403-2.874-1.197C8.817 9.852 9.198 6.032 9.203 6z"/><path d="M24.982 21.447v-.017c0-.045-.006-.09-.006-.14-.033-1.107-.106-3.696-2.533-4.523l-.056-.017c-2.521-.643-4.618-2.097-4.64-2.113a.754.754 0 1 0-.867 1.235c.095.067 2.32 1.616 5.105 2.332 1.303.464 1.448 1.856 1.487 3.13 0 .051 0 .096.006.14.005.504-.028 1.281-.118 1.728-.905.515-4.456 2.293-9.857 2.293-5.379 0-8.952-1.784-9.863-2.298-.09-.448-.129-1.225-.117-1.728 0-.045.005-.09.005-.14.04-1.275.185-2.667 1.488-3.13 2.784-.716 5.01-2.27 5.104-2.332a.754.754 0 1 0-.866-1.236c-.023.017-2.108 1.47-4.641 2.113l-.056.017c-2.427.833-2.5 3.422-2.533 4.524 0 .05 0 .095-.005.14v.016c-.006.29-.012 1.784.285 2.533a.717.717 0 0 0 .29.352C2.763 24.438 6.783 27 13.51 27c6.726 0 10.746-2.567 10.914-2.673a.747.747 0 0 0 .29-.352c.28-.744.274-2.237.269-2.527z"/></svg>