<svg width="42" height="28" viewBox="0 0 42 28" xmlns="http://www.w3.org/2000/svg"><path d="M39.06 11.979l-1.088-4.35a.658.658 0 0 0 .52-.644v-.701a2.765 2.765 0 0 0-2.761-2.762h-4.954V2.075c0-.75-.61-1.359-1.36-1.359H4.166c-.75 0-1.36.61-1.36 1.36V14a.658.658 0 0 0 1.316 0V2.075c0-.024.02-.044.044-.044h25.253c.024 0 .043.02.043.044V14a.658.658 0 1 0 1.316 0v-.745h7.76a2.15 2.15 0 0 1 2.043 1.49h-2.045a.658.658 0 0 0-.657.658v1.403c0 1.136.924 2.06 2.06 2.06h.746v2.894h-1.72a4.171 4.171 0 0 0-3.936-2.806 4.171 4.171 0 0 0-3.936 2.806h-.317v-4.954a.658.658 0 1 0-1.315 0v4.954H15.817a4.171 4.171 0 0 0-3.936-2.806 4.171 4.171 0 0 0-3.936 2.806h-3.78a.044.044 0 0 1-.044-.044v-1.447h2.85a.658.658 0 0 0 0-1.315H.658a.658.658 0 0 0 0 1.315h2.148v1.447c0 .75.61 1.359 1.359 1.359h3.552v.044a4.17 4.17 0 0 0 4.164 4.165 4.17 4.17 0 0 0 4.165-4.165l-.001-.044h14.82v.044a4.17 4.17 0 0 0 4.164 4.165 4.17 4.17 0 0 0 4.165-4.165l-.001-.044h2.15a.658.658 0 0 0 .657-.658v-7.014a3.469 3.469 0 0 0-2.94-3.424zm-8.283-7.142h4.954c.797 0 1.447.65 1.447 1.447v.044h-6.401v-1.49zm0 7.102V7.643h5.843l1.074 4.296h-6.917zM11.88 25.97a2.853 2.853 0 0 1-2.85-2.85 2.853 2.853 0 0 1 2.85-2.85 2.853 2.853 0 0 1 2.85 2.85 2.853 2.853 0 0 1-2.85 2.85zm23.148 0a2.853 2.853 0 0 1-2.85-2.85 2.853 2.853 0 0 1 2.85-2.85 2.853 2.853 0 0 1 2.85 2.85 2.853 2.853 0 0 1-2.85 2.85zm5.656-8.418h-.745a.746.746 0 0 1-.746-.745v-.746h1.49v1.491z"/></svg>