<svg width="30" height="30" viewBox="0 0 30 30" xmlns="http://www.w3.org/2000/svg"><path d="M28.1 17.572h-.448v-4.044a1.9 1.9 0 0 0-.806-1.551v-.551a1.45 1.45 0 0 0-1.448-1.448h-.335l1.282-1.882a1.386 1.386 0 0 0-.364-1.924L17.278.24A1.375 1.375 0 0 0 16.24.025a1.376 1.376 0 0 0-.886.58L7.842 11.628h-2.09l.504-5.105a.151.151 0 0 1 .095-.127 3.25 3.25 0 0 0 1.586-1.288.15.15 0 0 1 .142-.067l3.279.324a.428.428 0 0 0 .084-.85L8.163 4.19a1 1 0 0 0-.947.459 2.39 2.39 0 0 1-1.166.947 1 1 0 0 0-.645.843l-.512 5.19h-.545l.797-8.075a.53.53 0 0 1 .58-.475l6.625.654a.428.428 0 0 0 .084-.85l-6.626-.655A1.386 1.386 0 0 0 4.294 3.47l-.642 6.508H2.557a1.45 1.45 0 0 0-1.449 1.448v.376A1.9 1.9 0 0 0 0 13.528V28.1C0 29.148.852 30 1.9 30h23.852c1.047 0 1.9-.852 1.9-1.9v-4.044h.448c.53 0 .961-.43.961-.96v-4.563a.962.962 0 0 0-.96-.961zm-2.702-6.74c.327 0 .593.267.593.594v.218a1.899 1.899 0 0 0-.24-.016h-1.813l.542-.795h.918zM16.06 1.088a.526.526 0 0 1 .735-.14l8.705 5.93a.53.53 0 0 1 .14.736l-2.736 4.014h-.656l1.341-1.968a1 1 0 0 0 .047-1.06 2.39 2.39 0 0 1-.287-1.475 1 1 0 0 0-.432-.96l-4.512-3.074a1 1 0 0 0-1.051-.051 2.39 2.39 0 0 1-1.477.273 1.012 1.012 0 0 0-.97.43l-5.373 7.885h-.656L16.06 1.087zm.188 7.259a3.527 3.527 0 0 0-3.514 3.282h-2.167l5.045-7.403a.153.153 0 0 1 .144-.066 3.25 3.25 0 0 0 2.01-.37.15.15 0 0 1 .156.009l4.511 3.075a.151.151 0 0 1 .066.142c-.09.688.049 1.4.39 2.005a.152.152 0 0 1-.008.159l-1.67 2.449h-1.449a3.527 3.527 0 0 0-3.514-3.282zm2.657 3.282h-5.314a2.672 2.672 0 0 1 2.657-2.427 2.672 2.672 0 0 1 2.657 2.427zm-16.943-.202c0-.327.266-.594.594-.594h1.01l-.078.796H1.963v-.202zM.855 13.528c0-.576.469-1.045 1.045-1.045h23.852c.576 0 1.045.469 1.045 1.045v1.186H.855v-1.186zM26.797 28.1c0 .576-.47 1.045-1.045 1.045H1.9A1.046 1.046 0 0 1 .855 28.1v-1.186H3.16a.427.427 0 1 0 0-.855H.855v-10.49h25.942v2.003h-4.065c-1.28 0-2.39.746-2.916 1.827l-.006.01-.012.029a3.234 3.234 0 0 0-.308 1.376 3.246 3.246 0 0 0 3.242 3.242h4.065v2.003h-20.9a.427.427 0 1 0 0 .855h20.9V28.1zm1.41-5.005a.106.106 0 0 1-.107.106h-5.368a2.39 2.39 0 0 1-2.098-3.524 2.39 2.39 0 0 1 2.098-1.25h5.369c.058 0 .106.047.106.106v4.562z"/></svg>