<svg width="31" height="31" viewBox="0 0 31 31" xmlns="http://www.w3.org/2000/svg"><g clip-path="url(#a)"><path d="M4.154 31h19.633a1.55 1.55 0 0 0 1.55-1.55V5.167h2.067c.57 0 1.033-.463 1.033-1.034v-1.55A2.587 2.587 0 0 0 25.853 0h-21.7a1.55 1.55 0 0 0-1.55 1.55v27.9c0 .856.694 1.55 1.55 1.55zm21.7-29.967c.855 0 1.55.694 1.55 1.55v1.55H6.737v-1.55a2.556 2.556 0 0 0-.53-1.55h19.647zM3.637 1.55c0-.285.231-.517.517-.517.856 0 1.55.694 1.55 1.55v1.55c0 .571.462 1.034 1.033 1.034h17.566V29.45a.517.517 0 0 1-.516.517H4.154a.517.517 0 0 1-.517-.517V1.55z"/><path d="M6.737 20.15h3.1c.57 0 1.033-.463 1.033-1.033v-3.1c0-.57-.463-1.034-1.033-1.034h-3.1c-.57 0-1.034.463-1.034 1.034v3.1c0 .57.463 1.033 1.034 1.033zm0-4.133h3.1v3.1h-3.1v-3.1zm0-2.85h3.1c.57 0 1.033-.463 1.033-1.034v-3.1c0-.57-.463-1.033-1.033-1.033h-3.1c-.57 0-1.034.463-1.034 1.034v3.1c0 .57.463 1.033 1.034 1.033zm0-4.133h3.1v3.1h-3.1v-3.1zm0 18.349h3.1c.57 0 1.033-.462 1.033-1.033v-3.1c0-.57-.463-1.033-1.033-1.033h-3.1c-.57 0-1.034.462-1.034 1.033v3.1c0 .57.463 1.033 1.034 1.033zm0-4.133h3.1v3.1h-3.1v-3.1zm6.2-13.433h2.583a.517.517 0 1 0 0-1.034h-2.583a.517.517 0 1 0 0 1.034zm4.65 0h5.167a.517.517 0 0 0 0-1.034h-5.167a.517.517 0 0 0 0 1.034zm-4.65 2.066h5.167a.517.517 0 1 0 0-1.033h-5.167a.517.517 0 1 0 0 1.033zm9.817-1.033H20.17a.517.517 0 0 0 0 1.033h2.584a.517.517 0 0 0 0-1.033zm-9.817 6.2h2.583a.517.517 0 1 0 0-1.033h-2.583a.517.517 0 1 0 0 1.033zm9.817-1.033h-5.167a.517.517 0 0 0 0 1.033h5.167a.517.517 0 0 0 0-1.033zm-9.817 3.1h5.167a.517.517 0 0 0 0-1.034h-5.167a.517.517 0 1 0 0 1.034zm9.817-1.034H20.17a.517.517 0 0 0 0 1.034h2.584a.517.517 0 0 0 0-1.034zm-9.817 6.2h2.583a.517.517 0 1 0 0-1.033h-2.583a.517.517 0 1 0 0 1.033zm9.817-1.033h-5.167a.517.517 0 0 0 0 1.033h5.167a.517.517 0 0 0 0-1.033zm-9.817 3.1h5.167a.517.517 0 0 0 0-1.033h-5.167a.517.517 0 1 0 0 1.033zm9.817-1.033H20.17a.517.517 0 0 0 0 1.033h2.584a.517.517 0 0 0 0-1.033z"/></g><defs><clipPath id="a"><path d="M0 0h31v31H0z"/></clipPath></defs></svg>