<svg width="23" height="30" viewBox="0 0 23 30" xmlns="http://www.w3.org/2000/svg"><path d="M22.299 20.97L9.125 7.798A.66.66 0 0 0 8 8.263v18.24a.658.658 0 0 0 1.063.52l3.345-2.615 2.92 5.253a.661.661 0 0 0 .871.27l3.952-1.977a.657.657 0 0 0 .282-.909l-2.75-4.95h4.15a.66.66 0 0 0 .466-1.124zm-5.735-.19a.66.66 0 0 0-.577.979l2.96 5.326-2.773 1.387-2.986-5.378a.66.66 0 0 0-.983-.2l-2.888 2.258V9.853L20.244 20.78h-3.68zM9.24.919a.56.56 0 0 0-.56.56v3.364a.56.56 0 0 0 1.12 0V1.48a.56.56 0 0 0-.56-.561zM4.756 8.767H1.392a.56.56 0 0 0 0 1.12h3.364a.56.56 0 0 0 0-1.12zm12.332 0h-3.363a.56.56 0 0 0 0 1.12h3.363a.56.56 0 0 0 0-1.12zM6.465 5.76L4.086 3.382a.561.561 0 0 0-.792.793l2.379 2.378a.563.563 0 0 0 .792 0 .561.561 0 0 0 0-.793zm0 6.343a.561.561 0 0 0-.792 0l-2.38 2.378a.56.56 0 0 0 .793.793l2.38-2.378a.56.56 0 0 0 0-.793zm8.722-8.721a.56.56 0 0 0-.794 0l-2.38 2.378a.561.561 0 0 0 .795.792l2.379-2.377a.56.56 0 0 0 0-.793z"/></svg>