<svg width="25" height="25" viewBox="0 0 25 25" fill="none" xmlns="http://www.w3.org/2000/svg"><g clip-path="url(#a)" fill="#414141"><path d="M.295.296a1.01 1.01 0 0 1 1.428 0l22.98 22.98a1.01 1.01 0 1 1-1.427 1.428L.296 1.724a1.01 1.01 0 0 1 0-1.428z"/><path d="M.296 23.276L23.276.296a1.01 1.01 0 1 1 1.428 1.428l-22.98 22.98a1.007 1.007 0 0 1-1.428 0 1.01 1.01 0 0 1 0-1.428z"/></g><defs><clipPath id="a"><path fill="#fff" transform="matrix(-1 0 0 1 25 0)" d="M0 0h25v25H0z"/></clipPath></defs></svg>