<svg width="31" height="28" viewBox="0 0 31 28" xmlns="http://www.w3.org/2000/svg"><path d="M21.028 12.9c-.056-.047-.102-.09-.15-.133-.322-.367.256-.4.256-.4h7.268s.55.024.212.381a1.648 1.648 0 0 0-.056.05 1.96 1.96 0 0 1-.113.096l-.07.058c-.042.032-.077.06-.106.085-.765.604-2.05 1.393-3.514 1.365-1.624.057-2.998-.88-3.727-1.501zm-.485-1.433c-.615 0-.504-.42-.404-.636l.064-.122.003-.006 4.245-8.084c.005-.008.294-.557.587.002l4.233 8.058c.087.174.356.79-.273.79l-8.454-.002h-.001zm-9.79-.737v.002l.066.125c.102.21.255.611-.066.611l-9.108-.001c-.302 0-.242-.277-.146-.5l.144-.275.002-.001 4.342-8.268s.222-.343.401 0l4.364 8.307zm-.689 2.166c-.808.578-2.235 1.429-3.704 1.485-.028.003-.055.01-.083.013-.004-.001-.006-.004-.008-.008-.065.006-.127.015-.192.015-.033 0-.064-.007-.097-.007-1.52-.016-2.937-.972-3.673-1.565 0 0-.586-.464 0-.464h.748l6.43.002h.566s.582.143.013.53zm20.82-1.878l-.013-.03.008-.005-.097-.184-5.143-9.793C25.499.751 25.009 0 24.069 0H6.84C5.792 0 5.266 1.033 5.255 1.057L.204 10.675.2 10.68l-.035.069c-.085.168-.273.623-.086 1.072 1.283 2.083 3.571 3.482 6.197 3.482 2.568 0 4.808-1.341 6.106-3.346.198-.456-.078-1.027-.078-1.027l-4.78-9.1-.046-.09c-.064-.147-.121-.43.391-.43h6.266c.178.007.674.094.674.924v21.56a1.132 1.132 0 0 1-.537.92l-3.137 1.94s-.823.518 0 .518h8.901c.606 0 0-.42 0-.42l-3.232-1.979-.002-.001c-.531-.326-.63-.735-.645-.942V2.14c0-.75.537-.828.726-.832h6.127c.16.003.65.056.34.645l-4.796 9.132s-.15.36.018.755c1.286 2.07 3.564 3.46 6.182 3.46 2.623 0 4.91-1.392 6.194-3.47.127-.336-.017-.708-.065-.813z"/></svg>