<svg width="15" height="15" viewBox="0 0 15 15" fill="none" xmlns="http://www.w3.org/2000/svg">
<path d="M14.2322 5.92542L13.1794 5.74681C13.0697 5.39273 12.9287 5.05118 12.7563 4.7253L13.3768 3.85732C13.64 3.48757 13.5992 2.98308 13.2765 2.66346L12.3427 1.72968C12.1673 1.55421 11.9354 1.45707 11.6878 1.45707C11.4936 1.45707 11.3087 1.51661 11.152 1.62941L10.2809 2.24984C9.94249 2.07123 9.58841 1.92396 9.2218 1.81429L9.04632 0.773971C8.97112 0.325883 8.5857 0 8.13135 0H6.81216C6.35781 0 5.97239 0.325883 5.89719 0.773971L5.71545 1.83936C5.3645 1.94903 5.02295 2.09317 4.69707 2.26864L3.83536 1.64821C3.67869 1.53541 3.49068 1.47587 3.29641 1.47587C3.04886 1.47587 2.81385 1.57301 2.64151 1.74849L1.70461 2.68226C1.38499 3.00188 1.34112 3.50637 1.60434 3.87612L2.23103 4.75663C2.05869 5.08565 1.92082 5.4272 1.81428 5.78128L0.773967 5.95676C0.325881 6.03196 0 6.41738 0 6.87174V8.19093C0 8.64529 0.325881 9.03071 0.773967 9.10591L1.83935 9.28765C1.94902 9.63861 2.09316 9.98015 2.26863 10.306L1.65134 11.1646C1.38813 11.5344 1.42886 12.0389 1.75161 12.3585L2.68538 13.2923C2.86086 13.4677 3.09273 13.5649 3.34028 13.5649C3.53455 13.5649 3.71943 13.5053 3.8761 13.3925L4.7566 12.7658C5.07308 12.9319 5.40523 13.0666 5.74678 13.1732L5.92225 14.226C5.99746 14.6741 6.38287 15 6.83723 15H8.15955C8.6139 15 8.99932 14.6741 9.07452 14.226L9.25313 13.1732C9.60721 13.0635 9.94876 12.9225 10.2746 12.7502L11.1426 13.3706C11.2993 13.4834 11.4873 13.5429 11.6816 13.5429C11.9291 13.5429 12.161 13.4458 12.3365 13.2703L13.2702 12.3365C13.5899 12.0169 13.6337 11.5124 13.3705 11.1427L12.7501 10.2716C12.9224 9.94255 13.0666 9.601 13.1731 9.25005L14.2259 9.07458C14.674 8.99937 14.9999 8.61396 14.9999 8.1596V6.8404C15.0062 6.38605 14.6803 6.00063 14.2322 5.92542ZM14.1601 8.1596C14.1601 8.20033 14.1319 8.2348 14.0912 8.24107L12.7751 8.46041C12.6091 8.48862 12.4775 8.61082 12.4367 8.77063C12.3177 9.23125 12.1359 9.67307 11.8915 10.0836C11.8069 10.2277 11.8132 10.4063 11.9103 10.5442L12.6843 11.6346C12.7062 11.666 12.7031 11.713 12.6749 11.7412L11.7411 12.675C11.7192 12.6969 11.6972 12.7 11.6816 12.7C11.6628 12.7 11.6471 12.6938 11.6346 12.6844L10.5473 11.9104C10.4125 11.8132 10.2308 11.807 10.0866 11.8916C9.67615 12.136 9.23433 12.3177 8.77371 12.4368C8.61077 12.4775 8.48856 12.6123 8.4635 12.7752L8.24102 14.0913C8.23475 14.132 8.20028 14.1602 8.15955 14.1602H6.84036C6.79962 14.1602 6.76516 14.132 6.75889 14.0913L6.53955 12.7752C6.51135 12.6092 6.38914 12.4775 6.22933 12.4368C5.78125 12.3209 5.34883 12.1423 4.94461 11.9104C4.87881 11.8728 4.80361 11.854 4.73154 11.854C4.64693 11.854 4.5592 11.879 4.48713 11.9323L3.39041 12.7126C3.37474 12.722 3.35908 12.7282 3.34341 12.7282C3.33088 12.7282 3.30581 12.7251 3.28387 12.7032L2.3501 11.7694C2.3219 11.7412 2.31877 11.6973 2.3407 11.6628L3.11153 10.5818C3.20867 10.4439 3.21494 10.2622 3.13033 10.118C2.88592 9.71068 2.69792 9.26885 2.57884 8.80823C2.53498 8.64842 2.40337 8.52622 2.24043 8.49802L0.914973 8.2724C0.874238 8.26614 0.846036 8.23167 0.846036 8.19093V6.87174C0.846036 6.831 0.874238 6.79653 0.914973 6.79027L2.22163 6.57092C2.3877 6.54272 2.52244 6.42051 2.56318 6.25757C2.67912 5.79695 2.85772 5.352 3.099 4.94151C3.1836 4.79737 3.1742 4.61876 3.07707 4.48402L2.29683 3.3873C2.2749 3.35596 2.27803 3.30896 2.30623 3.28076L3.24001 2.34698C3.26194 2.32505 3.28387 2.32191 3.29954 2.32191C3.31834 2.32191 3.33401 2.32818 3.34654 2.33758L4.42759 3.10842C4.56546 3.20556 4.7472 3.21182 4.89134 3.12722C5.29869 2.88281 5.74051 2.6948 6.20113 2.57573C6.36094 2.53186 6.48315 2.40025 6.51135 2.23731L6.73696 0.911845C6.74322 0.871109 6.77769 0.842908 6.81843 0.842908H8.13762C8.17835 0.842908 8.21282 0.871109 8.21909 0.911845L8.43843 2.21851C8.46663 2.38458 8.58883 2.51932 8.75178 2.56006C9.22493 2.67913 9.67615 2.86401 10.096 3.11155C10.2402 3.19616 10.4188 3.18989 10.5567 3.09275L11.6377 2.31565C11.6534 2.30625 11.669 2.29998 11.6847 2.29998C11.6972 2.29998 11.7223 2.30311 11.7442 2.32505L12.678 3.25883C12.7062 3.28703 12.7093 3.3309 12.6874 3.36536L11.9134 4.45268C11.8163 4.58742 11.81 4.76917 11.8946 4.91331C12.1391 5.32379 12.3208 5.76562 12.4399 6.22624C12.4806 6.38918 12.6153 6.51139 12.7783 6.53645L14.0943 6.75893C14.1351 6.7652 14.1633 6.79967 14.1633 6.8404V8.1596H14.1601Z" fill="white"/>
<path d="M7.50149 4.26104C5.71541 4.26104 4.26462 5.71185 4.26462 7.49793C4.26462 9.28402 5.71541 10.7348 7.50149 10.7348C9.28757 10.7348 10.7384 9.28402 10.7384 7.49793C10.7384 5.71185 9.28757 4.26104 7.50149 4.26104ZM7.50149 9.88879C6.1823 9.88879 5.11066 8.81713 5.11066 7.49793C5.11066 6.17874 6.1823 5.10708 7.50149 5.10708C8.82068 5.10708 9.89233 6.17874 9.89233 7.49793C9.89233 8.81713 8.82068 9.88879 7.50149 9.88879Z" fill="white"/>
</svg>
