<svg width="15" height="15" viewBox="0 0 15 15" fill="none" xmlns="http://www.w3.org/2000/svg">
<path d="M1.18421 15H13.8158C14.1299 15 14.4311 14.8752 14.6532 14.6532C14.8752 14.4311 15 14.1299 15 13.8158V1.18421C15 0.870138 14.8752 0.56893 14.6532 0.346847C14.4311 0.124765 14.1299 0 13.8158 0H1.18421C0.870138 0 0.56893 0.124765 0.346847 0.346847C0.124765 0.56893 0 0.870138 0 1.18421V13.8158C0 14.1299 0.124765 14.4311 0.346847 14.6532C0.56893 14.8752 0.870138 15 1.18421 15ZM9.07895 0.789474V6.80289L7.70329 5.9775C7.6419 5.94061 7.57162 5.92113 7.5 5.92113C7.42838 5.92113 7.35811 5.94061 7.29671 5.9775L5.92105 6.80289V0.789474H9.07895ZM0.789474 1.18421C0.789474 1.07952 0.831062 0.979117 0.905089 0.90509C0.979117 0.831062 1.07952 0.789474 1.18421 0.789474H5.13158V7.5C5.13159 7.56987 5.15015 7.63848 5.18535 7.69883C5.22056 7.75918 5.27115 7.8091 5.33196 7.8435C5.39278 7.8779 5.46163 7.89554 5.53149 7.89463C5.60135 7.89371 5.66972 7.87427 5.72961 7.83829L7.5 6.77605L9.2704 7.83829C9.33029 7.87427 9.39865 7.89371 9.46851 7.89463C9.53837 7.89554 9.60723 7.8779 9.66804 7.8435C9.72885 7.8091 9.77944 7.75918 9.81465 7.69883C9.84985 7.63848 9.86841 7.56987 9.86842 7.5V0.789474H13.8158C13.9205 0.789474 14.0209 0.831062 14.0949 0.90509C14.1689 0.979117 14.2105 1.07952 14.2105 1.18421V13.8158C14.2105 13.9205 14.1689 14.0209 14.0949 14.0949C14.0209 14.1689 13.9205 14.2105 13.8158 14.2105H1.18421C1.07952 14.2105 0.979117 14.1689 0.905089 14.0949C0.831062 14.0209 0.789474 13.9205 0.789474 13.8158V1.18421Z" fill="white"/>
</svg>
