<svg width="33" height="33" viewBox="0 0 33 33" xmlns="http://www.w3.org/2000/svg"><path d="M17.594 21.723h8.798c.33 0 .55-.22.55-.55v-4.948c0-.33-.22-.55-.55-.55h-8.798c-.33 0-.55.22-.55.55v4.949c0 .33.22.55.55.55zm.55-4.948h7.698v3.849h-7.698v-3.85zM2.75 14.576h4.398c.33 0 .55-.22.55-.55 0-.33-.22-.55-.55-.55H2.749c-.33 0-.55.22-.55.55 0 .33.22.55.55.55zm6.597 0h4.399c.33 0 .55-.22.55-.55 0-.33-.22-.55-.55-.55H9.347c-.33 0-.55.22-.55.55 0 .33.22.55.55.55zM2.75 16.775h7.147c.33 0 .55-.22.55-.55 0-.33-.22-.55-.55-.55H2.749c-.33 0-.55.22-.55.55 0 .33.22.55.55.55zm10.996-1.1h-1.65c-.33 0-.55.22-.55.55 0 .33.22.55.55.55h1.65c.33 0 .55-.22.55-.55 0-.33-.22-.55-.55-.55z"/><path d="M32.495 8.857c-.385-.494-.88-.77-1.485-.824l-1.32-.16V5.228c0-1.21-.989-2.199-2.199-2.199H2.2C.99 3.03 0 4.02 0 5.23v17.594c0 .993.667 1.838 1.576 2.108a2.14 2.14 0 0 0 1.943 2.18l25.402 2.86h.22c1.1 0 2.09-.825 2.2-1.87l1.649-17.65a2.137 2.137 0 0 0-.495-1.594zM1.1 6.878h27.49v3.299H1.1V6.878zm1.1-2.75h25.29c.605 0 1.1.496 1.1 1.1v.55H1.1v-.55c0-.604.495-1.1 1.1-1.1zM1.1 22.824V11.277h27.49v11.546c0 .605-.495 1.1-1.1 1.1H2.2c-.604 0-1.1-.495-1.1-1.1zm30.79-12.591l-1.65 17.65a1.109 1.109 0 0 1-1.21.99l-25.346-2.86a1.111 1.111 0 0 1-.99-.99h24.797c1.21 0 2.2-.99 2.2-2.199V8.912l1.264.11c.275 0 .55.165.715.385.165.22.275.55.22.825z"/></svg>