<svg width="27" height="20" viewBox="0 0 27 20" xmlns="http://www.w3.org/2000/svg"><path d="M13.5 16.678a.528.528 0 1 0 0 1.055.528.528 0 0 0 0-1.055z"/><path d="M26.896 3.021a.527.527 0 0 0-.423-.212 3.452 3.452 0 0 0-2.701 1.3 2.112 2.112 0 0 0-3.1 1.864c0 .874.534 1.625 1.293 1.945l-.097.117c-.548.659-1.556 1.102-2.508 1.102-.807 0-1.744-.322-2.317-.895l-.261-.26a2.113 2.113 0 0 0 1.464-2.01 2.112 2.112 0 0 0-2.11-2.109h-.053a2.71 2.71 0 0 0-.018-1.151 2.64 2.64 0 1 0-5.148 1.151h-.054c-1.163 0-2.11.947-2.11 2.11 0 .938.617 1.735 1.465 2.008l-.26.261c-.544.544-1.454.895-2.318.895-.92 0-1.936-.414-2.508-1.102l-.097-.117a2.113 2.113 0 0 0 1.293-1.945 2.112 2.112 0 0 0-3.1-1.864 3.452 3.452 0 0 0-2.7-1.3.527.527 0 0 0-.506.678L3.3 14.41h-.346a.527.527 0 0 0 0 1.055h.527v2.953c0 .872.71 1.582 1.582 1.582h16.875c.873 0 1.582-.71 1.582-1.582v-2.953h.528a.527.527 0 0 0 0-1.055H23.7l3.277-10.922a.527.527 0 0 0-.082-.467zm-4.431 13.657h-6.856a.527.527 0 0 0 0 1.055h6.856v.685c0 .29-.237.527-.527.527H5.061a.528.528 0 0 1-.527-.527v-.685h6.856a.527.527 0 0 0 0-1.055H4.535v-1.213h17.93v1.213zm.135-2.268H4.4L1.272 3.981a2.397 2.397 0 0 1 1.36 1.13c.17.311.591.369.838.119a1.056 1.056 0 1 1 .63 1.79.528.528 0 0 0-.466.86l.687.827c.782.943 2.1 1.483 3.319 1.483 1.147 0 2.32-.46 3.063-1.203l1.06-1.06a.527.527 0 0 0-.372-.9h-.528a1.056 1.056 0 0 1 0-2.11h.81a.527.527 0 0 0 .456-.791 1.583 1.583 0 1 1 2.741 0 .527.527 0 0 0 .457.791h.81a1.056 1.056 0 0 1 0 2.11h-.528a.528.528 0 0 0-.373.9l1.061 1.06c.772.773 1.975 1.204 3.063 1.204 1.268 0 2.57-.583 3.319-1.483l.687-.827a.527.527 0 0 0-.467-.861 1.056 1.056 0 1 1-.118-2.103c.284 0 .55.11.748.312a.527.527 0 0 0 .838-.118 2.396 2.396 0 0 1 1.361-1.13L22.6 14.41z"/><path d="M13.5 9.137c-1.163 0-2.11.946-2.11 2.11 0 1.162.947 2.108 2.11 2.108 1.163 0 2.11-.946 2.11-2.109s-.947-2.11-2.11-2.11zm0 3.164a1.056 1.056 0 0 1 0-2.11 1.056 1.056 0 0 1 0 2.11z"/></svg>