<svg width="53" height="53" viewBox="0 0 53 53" fill="none" xmlns="http://www.w3.org/2000/svg"><path d="M44.167 9.358V4.417A4.422 4.422 0 0 0 39.75 0H4.417A4.422 4.422 0 0 0 0 4.417V23.85a4.408 4.408 0 0 0 3.96 4.371l3.321 8.62a4.418 4.418 0 0 0 5.71 2.533l20.735-7.987a12.77 12.77 0 0 0 1.1 11.337l.507.812v8.58c0 .489.396.884.884.884h15.9a.883.883 0 0 0 .883-.883V22.959a11.56 11.56 0 0 0-3.384-8.142l-5.45-5.459zm0 5.283l2.68 6.96a2.65 2.65 0 0 1-1.52 3.424l-1.533.592a4.42 4.42 0 0 0 .373-1.767v-9.21zm-42.4 9.209V4.417a2.65 2.65 0 0 1 2.65-2.65H39.75a2.65 2.65 0 0 1 2.65 2.65v5.614h-.008l.008.02V23.85a2.671 2.671 0 0 1-.06.458l-8.091-8.093a4.712 4.712 0 0 0-6.802 6.517l3.45 3.768H4.416a2.65 2.65 0 0 1-2.65-2.65zm11.316 4.417l-6.281 2.418-.93-2.418h7.211zm-.728 9.458a2.65 2.65 0 0 1-3.425-1.52L7.44 32.33l10.544-4.063v-.006h14.532l1.148 1.252-21.309 8.212zm38.878 13.508H37.1v-7.066h14.133v7.066zm0-8.833H36.707l-.383-.612a11.015 11.015 0 0 1-.224-11.313.883.883 0 0 0-.116-1.035l-7.238-7.897a2.945 2.945 0 0 1 4.253-4.075l14.076 14.073 1.25-1.249-3.269-3.268.907-.354a4.417 4.417 0 0 0 2.532-5.706l-2.99-7.764 2.862 2.868a9.782 9.782 0 0 1 2.866 6.89V42.4z" fill="#1F1F1F"/><path d="M10.07 12.367a2.297 2.297 0 0 0 2.297-2.297V5.83a2.297 2.297 0 0 0-2.297-2.297H5.83A2.297 2.297 0 0 0 3.533 5.83v4.24a2.297 2.297 0 0 0 2.297 2.297h4.24zM5.3 10.07V8.833h1.767V7.067H5.3V5.83a.53.53 0 0 1 .53-.53h4.24a.53.53 0 0 1 .53.53v1.237H8.833v1.766H10.6v1.237a.53.53 0 0 1-.53.53H5.83a.53.53 0 0 1-.53-.53zm-.883 4.947H7.95v1.766H4.417v-1.766zm0 5.3H7.95v1.766H4.417v-1.766zm15.9 0h3.533v1.766h-3.533v-1.766zm-10.6-5.3h3.533v1.766H9.717v-1.766zm5.3 0h3.533v1.766h-3.533v-1.766zm5.3 0h3.533v1.766h-3.533v-1.766zM37.1 4.417h1.767v2.65H37.1v-2.65zm-3.533 0h1.766v2.65h-1.766v-2.65zm-3.534 0H31.8v2.65h-1.767v-2.65zm-3.533 0h1.767v2.65H26.5v-2.65z" fill="#F74B4B"/><path d="M38.867 45.933h1.766V47.7h-1.766v-1.767z" fill="#1F1F1F"/></svg>