<svg width="27" height="31" viewBox="0 0 27 31" xmlns="http://www.w3.org/2000/svg"><path d="M13.5 26.797c.29 0 .525-.235.525-.526V8.932a.525.525 0 1 0-1.05 0v17.34c0 .29.235.525.525.525zm-5.254 0c.29 0 .525-.235.525-.526V8.932a.525.525 0 1 0-1.05 0v17.34c0 .29.235.525.525.525zm10.508 0c.29 0 .525-.235.525-.526V8.932a.525.525 0 1 0-1.05 0v17.34c0 .29.235.525.525.525z"/><path d="M25.585 3.153h-7.38c-.057-.657-.26-1.765-.952-2.476C16.815.228 16.259 0 15.6 0h-5.254C9.69 0 9.134.228 8.695.677c-.692.711-.894 1.819-.952 2.476H1.415a.525.525 0 1 0 0 1.05h1.072l1.007 24.18c.02.906.582 2.617 2.578 2.617h14.855c1.996 0 2.56-1.711 2.579-2.605l1.006-24.192h1.073a.525.525 0 1 0 0-1.05zM9.45 1.409c.235-.241.529-.358.897-.358h5.254c.368 0 .662.117.897.358.423.432.593 1.193.652 1.744H8.799c.059-.551.228-1.312.65-1.744zm13.005 26.953c-.003.162-.075 1.587-1.528 1.587H6.072c-1.436 0-1.522-1.427-1.528-1.598L3.539 4.203H23.46l-1.005 24.159z"/></svg>