<svg width="34" height="34" viewBox="0 0 34 34" xmlns="http://www.w3.org/2000/svg"><g clip-path="url(#a)"><path d="M20.967 5.667V8.5a3.971 3.971 0 0 1-3.966 3.967A3.971 3.971 0 0 1 13.034 8.5V5.667H11.9V8.5c0 2.812 2.288 5.1 5.1 5.1s5.1-2.288 5.1-5.1V5.667h-1.134z"/><path d="M32.93 29.069l-3.05-12.21a2.84 2.84 0 0 0-2.704-2.124l-6.776-.526V11.9h-1.133v2.833c0 .296.227.542.523.565l7.344.569h.003c.775 0 1.452.524 1.645 1.27l3.049 12.207a2.837 2.837 0 0 1-2.749 3.522V34a3.972 3.972 0 0 0 3.848-4.931zM13.6 11.9v2.31l-6.73.523h-.006c-1.291 0-2.42.873-2.744 2.13L1.072 29.068a3.94 3.94 0 0 0 .444 3.004 3.937 3.937 0 0 0 2.437 1.808c.316.08.64.12.966.12v-1.133a2.83 2.83 0 0 1-.69-.086 2.812 2.812 0 0 1-1.74-1.292 2.816 2.816 0 0 1-.318-2.146l3.048-12.201c.194-.752.872-1.277 1.694-1.277l7.298-.567a.567.567 0 0 0 .523-.565V11.9h-1.133zM19.267 0h-4.533A2.837 2.837 0 0 0 11.9 2.833v3.4c0 .313.253.567.566.567h9.067a.567.567 0 0 0 .567-.567v-3.4A2.836 2.836 0 0 0 19.267 0zm1.7 5.667h-7.933V2.833c0-.937.763-1.7 1.7-1.7h4.533c.938 0 1.7.763 1.7 1.7v2.834z"/><path d="M19.267 3.4h-4.533a2.837 2.837 0 0 0-2.833 2.833c0 .313.254.567.566.567h9.067a.567.567 0 0 0 .567-.567A2.836 2.836 0 0 0 19.267 3.4zm-6.135 2.267a1.702 1.702 0 0 1 1.602-1.134h4.533c.74 0 1.37.474 1.604 1.134h-7.74z"/><path d="M17 8.5V6.233h-1.133v2.834c0 .312.254.566.567.566h1.133V8.5H17zm-5.1 22.1H7.368v-1.133a1.701 1.701 0 0 0-3.4 0v3.966c0 .314.254.567.567.567h5.1a2.837 2.837 0 0 0 2.833-2.833.567.567 0 0 0-.566-.567zm-2.266 2.267H5.101v-3.4a.567.567 0 0 1 1.133 0v1.7c0 .313.254.566.567.566h4.436a1.703 1.703 0 0 1-1.603 1.134zm-2.834-8.5H2.833V25.5H6.8v-1.133zm24.367 0H27.2V25.5h3.967v-1.133z"/><path d="M27.2 17H6.8a.567.567 0 0 0-.566.567v13.6c0 .313.254.566.567.566h20.4a.566.566 0 0 0 .566-.566v-13.6a.566.566 0 0 0-.566-.567zm-.566 13.6H7.367V18.133h19.267V30.6z"/><path d="M25.5 28.333h-1.133v1.134H25.5v-1.134zm-2.267 0H22.1v1.134h1.133v-1.134zm-3.8-14L17 16.765l-2.433-2.432-.801.801 2.833 2.833a.565.565 0 0 0 .801 0l2.833-2.833-.801-.801z"/><path d="M28.334 27.767c-.938 0-1.7.762-1.7 1.7V30.6H22.1a.566.566 0 0 0-.566.567A2.837 2.837 0 0 0 24.367 34h5.1a.567.567 0 0 0 .567-.567v-3.966c0-.938-.763-1.7-1.7-1.7zm.566 5.1h-4.533a1.703 1.703 0 0 1-1.603-1.134H27.2a.566.566 0 0 0 .567-.566v-1.7a.567.567 0 0 1 1.133 0v3.4zm-1.7-11.9H6.8V22.1h20.4v-1.133z"/><path d="M19.267 17h-4.533a.567.567 0 0 0-.567.567v7.366c0 .314.254.567.567.567h4.533a.566.566 0 0 0 .567-.567v-7.366a.566.566 0 0 0-.567-.567zm-.566 7.367h-3.4v-6.234h3.4v6.234z"/></g><defs><clipPath id="a"><path d="M0 0h34v34H0z"/></clipPath></defs></svg>