<svg width="27" height="23" viewBox="0 0 27 23" xmlns="http://www.w3.org/2000/svg"><path d="M5.16 16.925a.457.457 0 1 0 .57-.715 12.517 12.517 0 0 1-1.054-.942l-3.382-3.382 3.488-3.489a12.344 12.344 0 0 1 12.73-2.987.458.458 0 0 0 .291-.867A13.254 13.254 0 0 0 4.134 7.75L0 11.886l4.03 4.029c.356.357.737.697 1.13 1.01zM22.97 7.75a13.431 13.431 0 0 0-2.008-1.653.458.458 0 0 0-.51.76c.667.448 1.297.966 1.872 1.54l3.382 3.383-3.488 3.488a12.464 12.464 0 0 1-12.964 2.907.457.457 0 1 0-.308.86c1.455.522 2.967.775 4.47.775 3.484 0 6.915-1.361 9.449-3.895L27 11.78l-4.03-4.03z"/><path d="M13.964 17.101a5.246 5.246 0 0 1-2.775-.791.458.458 0 0 0-.483.776 6.15 6.15 0 0 0 3.258.93 6.18 6.18 0 0 0 6.173-6.173c0-1.228-.36-2.414-1.04-3.43a.457.457 0 0 0-.76.508c.58.865.886 1.876.886 2.922 0 2.9-2.36 5.258-5.258 5.258zm0-10.517c.944 0 1.87.253 2.678.732a.457.457 0 0 0 .465-.787 6.168 6.168 0 0 0-3.143-.86 6.18 6.18 0 0 0-5.545 8.89.458.458 0 0 0 .821-.402 5.265 5.265 0 0 1 4.724-7.572zM24.975.545a.457.457 0 0 0-.646 0L3.067 21.807a.457.457 0 1 0 .646.647L24.975 1.192a.457.457 0 0 0 0-.647z"/></svg>