<svg width="33" height="22" viewBox="0 0 33 22" fill="none" xmlns="http://www.w3.org/2000/svg"><g clip-path="url(#a)"><path d="M1 1h31v20H1V1z" fill="#C8313E"/><path d="M1.164 1h3.444v20H1.164V1z" fill="#fff"/><path d="M4.608 14.333H32V21H4.608v-6.667z" fill="#4AA657"/><path d="M1.164 1.15h.135v.402h-.135v-.401zm3.444 0h-.134v.402h.134v-.401zM2.811 1h.15v.723h-.15V1zm-.874 1.29h.17v.402h-.17V2.29zm1.729 0h.17v.402h-.17V2.29zM1.164 3.34h.135v.432h-.135V3.34zm3.444 0h-.134v.432h.134V3.34zm-1.797.04h.15v.61h-.15v-.61zM1.164 5.813h.135v.433h-.135v-.433zm3.444 0h-.134v.433h.134v-.433zm-1.797-.116h.15v.61h-.15v-.61zM1.164 8.406h.135v.432h-.135v-.432zm3.444 0h-.134v.432h.134v-.432zM2.82 9.498h.132v.391H2.82v-.391zm-.595 1.307h.143v.39h-.143v-.39zm.316-.721h.131v.232h.144v.339h.14v-.339H3.1v-.232h.131v.571h-.13v.19h-.089v.31H3.1v.19h.131v.571h-.13v-.232h-.144v-.339h-.141v.339h-.144v.232h-.13v-.57h.13v-.192h.088v-.308h-.088v-.191h-.13v-.571zm.863.721h.143v.39h-.143v-.39zm-.584 1.306h.132v.391H2.82v-.391zm-1.656 1.051h.135v.432h-.135v-.432zm3.444 0h-.134v.432h.134v-.432zm-3.444 2.592h.135v.433h-.135v-.433zm3.444 0h-.134v.433h.134v-.433zm-1.797-.06h.15v.61h-.15v-.61zm-1.647 2.534h.135v.432h-.135v-.432zm3.444 0h-.134v.432h.134v-.432zm-1.797-.218h.15v.61h-.15v-.61zm-.874 1.298h.17v.401h-.17v-.4zm1.729 0h.17v.401h-.17v-.4zm-2.502 1.14h.135v.401h-.135v-.401zm3.444 0h-.134v.401h.134v-.401zm-1.797-.171h.15V21h-.15v-.723zM1.462 4.058v.301h-.164v.313h-.134v.408h.134v.314h.164v.302h.191v-.302h.167V5.08h.136v-.408H1.82V4.36h-.167v-.301h-.19zm.026.624h.142v.388h-.142v-.388zm.908-.624v.301h-.164v.313h-.137v.408h.137v.314h.164v.302h.193v-.302h.165V5.08h.264v.314h.166v.302h.192v-.302h.165V5.08h.137v-.408H3.54V4.36h-.165v-.301h-.192v.301h-.166v.313h-.264V4.36H2.59v-.301h-.193zm.026.624h.142v.388h-.142v-.388zm.786 0h.143v.388h-.143v-.388zm.912-.624v.301h-.167v.313h-.136v.408h.136v.314h.166v.302h.191v-.302h.165V5.08h.133v-.408h-.133V4.36H4.31v-.301h-.19zm.022.624h.142v.388h-.142v-.388zm-2.68 11.622v.302h-.164v.314h-.134v.408h.134v.313h.164v.302h.191v-.302h.167v-.313h.136v-.408H1.82v-.315h-.167v-.302h-.19zm.026.626h.142v.388h-.142v-.388z" fill="#C8313E"/><path d="M2.396 16.304v.302h-.164v.314h-.137v.408h.137v.313h.164v.302h.193v-.302h.165v-.313h.264v.313h.166v.302h.192v-.302h.165v-.313h.137v-.408H3.54v-.315h-.165v-.302h-.192v.302h-.166v.314h-.264v-.314H2.59v-.302h-.193zm.026.626h.142v.388h-.142v-.388zm.786 0h.143v.388h-.143v-.388zm.912-.626v.302h-.167v.314h-.136v.408h.136v.313h.166v.302h.191v-.302h.165v-.313h.133v-.408h-.133v-.315H4.31v-.302h-.19zm.022.626h.142v.388h-.142v-.388z" fill="#C8313E"/><path d="M1.892 17.738v.274h-.11v.328h-.156v.304h-.192v.352h-.136v.289h-.134v.447h.134v.288h.136v.35h.192v.306h.156V21h.48v-.324h.155v-.305h.191v-.351h.137v-.288h.283v.288h.136v.35h.191v.306h.156V21h.479v-.324h.156v-.305h.192v-.351h.136v-.288h.134v-.447h-.134v-.29h-.136v-.35h-.192v-.305H3.99v-.328h-.11v-.274h-.259v.274h-.11v.328h-.156v.304h-.19v.352h-.137v.289h-.283v-.29h-.137v-.35h-.19v-.305H2.26v-.328h-.11v-.274h-.259zm.06.95h.14v.268h.133v.34h.133v.423h-.133v.34h-.133v.27h-.14v-.27h-.135v-.34h-.132v-.422h.132v-.341h.134v-.268zm1.729 0h.14v.268h.134v.34h.132v.423h-.132v.34h-.134v.27h-.14v-.27h-.134v-.34h-.133v-.422h.133v-.341h.134v-.268zM1.932 5.406v.315H1.77v.208h-.134v.315H1.5v.322h-.097v.279h-.105v.363h-.133v.565h.097v.296h.103v.362h.167v.322h.202V8.43h.162v-.36h.136v-.296h-.207v-.328h.356v.225h.215v.38h.195v.417h-.148v.309h-.109v.301H2.22v.298h-.155v.278H1.95v.237h-.162v.32h-.22v-.356h-.155v-.298h-.114v-.202h-.135v.713h.133v.307h.115v.192h.156v.316h.118v.236h-.118v.316h-.156v.192h-.115v.307h-.133v.713h.135v-.202h.114v-.298h.156v-.355h.219v.32h.162v.236h.115v.278h.155v.298h.113v.301h.11v.31h.147v.417h-.195v.379H2.18v.225h-.356v-.328h.207v-.296h-.136v-.362h-.162v-.322h-.202v.322h-.167v.362H1.26v.296h-.097v.565h.133v.363h.105v.279h.096v.322h.138v.315h.134v.208h.162v.315h.197v-.315h.162v-.208h.136v-.315h.135v-.322h.11v-.274h.11v-.238h.208v.238h.11v.274h.11v.322h.135v.315h.137v.208h.162v.315h.196v-.315h.163v-.208h.133v-.315h.138v-.322h.096v-.279h.105v-.363h.133v-.565h-.096v-.296h-.103v-.362H4.24v-.322h-.202v.322h-.161v.362H3.74v.296h.208v.328h-.357v-.225h-.214v-.38h-.196v-.417h.148v-.309h.11v-.301h.112v-.298h.155v-.28l.115.002v-.237h.163v-.32h.219v.356h.156v.298h.114v.202h.134v-.713h-.133v-.307H4.36v-.192h-.157v-.316h-.118v-.236h.118v-.316h.157v-.192h.114v-.307h.133v-.713h-.134v.202H4.36v.298h-.156v.355h-.22v-.32h-.162v-.236h-.115v-.278h-.155v-.298H3.44v-.301h-.11v-.31h-.148V8.05h.196v-.38h.214v-.225h.357v.328H3.74v.296h.137v.362h.161v.322h.202V8.43h.168v-.36h.103v-.296h.096v-.565h-.133v-.363H4.37v-.279h-.096v-.322h-.138V5.93h-.133v-.208H3.84v-.315h-.196v.315h-.162v.208h-.137v.315H3.21v.322H3.1v.274h-.11v.238h-.208V6.84h-.11v-.274h-.11v-.322h-.135V5.93h-.134v-.208h-.164v-.315h-.197zm.828 3.437h.253v.3h.057v.31h.15v.303h.093v.222h.095v.236h.165v.23h.236v1.112h-.236v.23h-.165v.236h-.095v.222H3.22v.303h-.15v.31h-.057v.3H2.76v-.3h-.057v-.31h-.15v-.303h-.094v-.222h-.094v-.236H2.2v-.23h-.237v-1.112H2.2v-.23h.165v-.236h.094v-.222h.094v-.303h.15v-.31h.057v-.3zM1.782 1v.324h-.156v.305h-.192v.351h-.136v.288h-.134v.447h.134v.29h.136v.35h.192v.305h.156v.328h.11v.274h.259v-.274h.11V3.66h.156v-.304h.191v-.352h.137v-.289h.283v.29h.136v.35h.191v.305h.156v.328h.11v.274h.26v-.274h.109V3.66h.156v-.304h.192v-.352h.136v-.289h.134v-.447h-.134V1.98h-.136v-.35h-.192v-.306H3.99V1h-.479v.324h-.156v.305h-.19v.351h-.137v.288h-.283V1.98h-.137v-.35h-.19v-.306H2.26V1h-.479zm.17.672h.14v.268h.133v.34h.133v.423h-.133v.341h-.133v.268h-.14V3.05l-.135-.006v-.34h-.132V2.28h.132v-.34h.134v-.27zm1.729 0h.14v.268h.134v.34h.132v.423h-.132v.341h-.134v.268h-.14v-.268h-.134v-.34h-.133V2.28h.133v-.34h.134v-.27z" fill="#C8313E"/></g><defs><clipPath id="a"><path fill="#fff" transform="translate(1 1)" d="M0 0h31v20H0z"/></clipPath></defs></svg>