<svg width="50" height="50" viewBox="0 0 50 50" fill="none" xmlns="http://www.w3.org/2000/svg"><g clip-path="url(#a)" fill="#8D979A"><path d="M13.323 22.992c0 .446.174.864.489 1.179l.589.589a4.14 4.14 0 0 0 2.946 1.22 4.142 4.142 0 0 0 2.946-1.22l4.151-4.151a9.096 9.096 0 0 0 5.864 2.12h.004a9.125 9.125 0 0 0 6.488-2.692.832.832 0 1 0-1.178-1.178 7.47 7.47 0 0 1-5.311 2.204h-.003a7.448 7.448 0 0 1-5.3-2.196.834.834 0 0 0-1.179 0l-4.715 4.714c-.943.945-2.59.945-3.535 0l-.589-.589 10.018-10.017c.934-.934 1.821-.934 2.945-.934 1.204 0 2.703 0 4.125-1.423l2.357-2.357a.833.833 0 1 0-1.178-1.179L30.9 9.44c-.935.934-1.822.934-2.947.934-1.203 0-2.701 0-4.124 1.422L13.813 21.813c-.316.315-.49.733-.49 1.18zM7.5 9.169c.92 0 1.667-.747 1.667-1.667 0-.919-.748-1.666-1.667-1.666s-1.667.747-1.667 1.666c0 .92.748 1.667 1.667 1.667zm8.08 2.627l2.356 2.357a.83.83 0 0 0 1.178 0 .832.832 0 0 0 0-1.178l-2.356-2.357a.832.832 0 1 0-1.179 1.178zm26.92-5.96c.918 0 1.666-.748 1.666-1.667 0-.92-.748-1.667-1.666-1.667a1.67 1.67 0 0 0-1.667 1.667c0 .92.748 1.667 1.667 1.667zm1.91 11.911c-1.354 1.354-1.819 3.56-2.268 5.693-.398 1.893-.81 3.852-1.814 4.856l-1.18 1.178a.834.834 0 0 0 1.18 1.178l1.178-1.178c1.354-1.353 1.818-3.558 2.267-5.69.4-1.896.813-3.855 1.816-4.86a.832.832 0 1 0-1.178-1.177z"/><path d="M49.756 17.747L36.178 4.169l2.744-2.744A.832.832 0 1 0 37.744.247L34.411 3.58a.832.832 0 0 0 0 1.178l14.166 14.167a.831.831 0 0 0 1.179 0 .832.832 0 0 0 0-1.178zM30.9 24.76a.834.834 0 0 0-1.178 1.179l8.838 8.838c.65.65.65 1.708 0 2.358a1.671 1.671 0 0 1-2.358 0l-8.838-8.84a.832.832 0 1 0-1.178 1.179L37.382 40.67a1.668 1.668 0 0 1-2.358 2.357L24.418 32.42a.832.832 0 1 0-1.178 1.18l9.427 9.427c.65.65.65 1.708 0 2.358-.63.63-1.726.63-2.356-.001l-1.18-1.178-7.66-7.66a.832.832 0 1 0-1.178 1.179l7.66 7.66c.315.315.489.733.489 1.179a1.668 1.668 0 0 1-2.845 1.178L11.423 33.58c-2.161-2.161-2.63-4.885-3.044-7.29-.349-2.022-.678-3.932-1.956-5.21a.832.832 0 1 0-1.179 1.178c.905.904 1.177 2.485 1.492 4.316.433 2.516.973 5.649 3.508 8.184l14.174 14.161c.65.65 1.503.976 2.357.976a3.327 3.327 0 0 0 2.357-.976 3.318 3.318 0 0 0 .914-1.708c1.221.59 2.812.34 3.8-.649a3.315 3.315 0 0 0 .914-1.709 3.338 3.338 0 0 0 3.8-.648c1.3-1.3 1.3-3.414 0-4.714l-.316-.316a3.323 3.323 0 0 0 1.495-.862c1.3-1.3 1.3-3.415 0-4.714l-8.84-8.84zM15.59 6.913l-5-5a.832.832 0 1 0-1.18 1.178l4.41 4.411L.245 21.08a.832.832 0 1 0 1.179 1.178L15.589 8.092a.832.832 0 0 0 0-1.179zm4.906 41.268c-.464.244-1.257.273-1.97-.44-.715-.715-.71-1.546-.478-1.907a.832.832 0 0 0-1.29-1.04 1.67 1.67 0 0 1-2.358 0 1.67 1.67 0 0 1 0-2.357.83.83 0 0 0 0-1.178.834.834 0 0 0-1.178 0l-.59.589c-.648.65-1.707.65-2.356 0a1.67 1.67 0 0 1 0-2.357l.59-.589a.833.833 0 0 0-1.007-1.31c-.454.26-1.251.23-1.94-.457-.731-.732-.728-1.543-.492-1.885a.834.834 0 0 0-1.372-.946c-.674.976-.656 2.667.686 4.009.528.527 1.103.842 1.67.993-.19.424-.29.886-.29 1.364a3.334 3.334 0 0 0 4.138 3.234 3.32 3.32 0 0 0 .963 2.069 3.336 3.336 0 0 0 3.056.901c.103.69.437 1.413 1.069 2.045.77.77 1.67 1.079 2.492 1.079.528 0 1.023-.128 1.43-.341a.833.833 0 1 0-.773-1.476z"/></g><defs><clipPath id="a"><path fill="#fff" d="M0 0h50v50H0z"/></clipPath></defs></svg>