<svg width="32" height="32" viewBox="0 0 32 32" xmlns="http://www.w3.org/2000/svg"><g clip-path="url(#a)" stroke-width=".2"><path d="M30.826 16l1.15-4.335a.686.686 0 0 0-.12-.598.687.687 0 0 0-.548-.27h-2.787a.469.469 0 1 0 0 .937h2.467l-1.085 4.09a.694.694 0 0 0 0 .353l1.085 4.089h-2.486a.469.469 0 1 0 0 .938h2.806a.687.687 0 0 0 .548-.27.687.687 0 0 0 .12-.6L30.827 16zM3.455 20.266H1.012l1.085-4.09a.694.694 0 0 0 0-.353l-1.085-4.089h2.447a.469.469 0 1 0 0-.937H.692a.686.686 0 0 0-.548.27.687.687 0 0 0-.12.598L1.174 16l-1.15 4.335a.686.686 0 0 0 .12.598c.132.172.332.27.548.27h2.763a.469.469 0 1 0 0-.937zm21.819-5.52a9.349 9.349 0 0 0-3.088-5.767A9.347 9.347 0 0 0 16 6.643c-2.28 0-4.476.829-6.185 2.335a9.348 9.348 0 0 0-3.089 5.766.469.469 0 1 0 .93.125 8.41 8.41 0 0 1 2.779-5.188A8.41 8.41 0 0 1 16 7.581a8.41 8.41 0 0 1 5.566 2.1 8.41 8.41 0 0 1 2.779 5.19.469.469 0 0 0 .93-.125zm-.396 1.892a.47.47 0 0 0-.522.407c-.52 4.204-4.113 7.375-8.356 7.375-4.246 0-7.839-3.173-8.356-7.38a.47.47 0 0 0-.93.114c.575 4.677 4.567 8.203 9.286 8.203 4.716 0 8.708-3.524 9.286-8.197a.469.469 0 0 0-.408-.522z"/><path d="M22.528 13.62a1.15 1.15 0 0 0-1.15-1.148h-4.085l.38-.927a1.93 1.93 0 0 0-.328-2.146 1.143 1.143 0 0 0-.947-.366 1.142 1.142 0 0 0-.868.528l-.006.01-2.025 3.346a.81.81 0 0 0-.603-.276l-1.961-.01h-.004a.805.805 0 0 0-.572.236.805.805 0 0 0-.24.575v5.993c0 .447.364.811.812.811h1.96a.813.813 0 0 0 .777-.576l1.59.542a7.01 7.01 0 0 0 2.267.376h2.835a1.15 1.15 0 0 0 1.148-1.149v-.434c0-.143-.026-.28-.074-.406.308-.207.51-.557.51-.954v-.435c0-.162-.034-.316-.094-.456.268-.21.44-.538.44-.904v-.435a1.14 1.14 0 0 0-.125-.522c.223-.21.363-.508.363-.838v-.434zm-9.763 5.688h-1.708V13.57l1.708.01v5.73zm8.614-5.041h-2.555a.469.469 0 1 0 0 .937h2.318a.21.21 0 0 1 .21.211v.435a.212.212 0 0 1-.21.211h-2.317a.469.469 0 1 0 0 .938h1.97c.117 0 .212.095.212.211v.435a.212.212 0 0 1-.212.211h-1.971a.469.469 0 1 0 0 .938h1.535c.117 0 .212.095.212.21v.436a.211.211 0 0 1-.212.21h-2.834c-.67 0-1.33-.109-1.964-.325l-1.759-.6a.93.93 0 0 0-.1-.027v-4.629a.917.917 0 0 0 .412-.358l2.209-3.65a.209.209 0 0 1 .158-.094.21.21 0 0 1 .175.068.997.997 0 0 1 .154 1.143l-.65 1.585a.469.469 0 0 0 .434.646h4.785c.116 0 .211.095.211.212v.434a.212.212 0 0 1-.211.212z"/><path d="M27.515 15.53a1.696 1.696 0 0 1-.184-1.634 2.642 2.642 0 0 0-1.16-3.316 1.697 1.697 0 0 1-.875-1.392 2.642 2.642 0 0 0-2.484-2.484 1.696 1.696 0 0 1-1.392-.874 2.642 2.642 0 0 0-3.316-1.161 1.696 1.696 0 0 1-1.633-.184 2.642 2.642 0 0 0-3.492.393c-.392.438-.972.64-1.551.543a2.642 2.642 0 0 0-2.975 1.87A1.696 1.696 0 0 1 7.29 8.453a2.642 2.642 0 0 0-1.87 2.975 1.696 1.696 0 0 1-.543 1.551 2.642 2.642 0 0 0-.393 3.492c.339.48.408 1.09.184 1.633a2.642 2.642 0 0 0 1.16 3.316c.514.285.84.805.875 1.392a2.642 2.642 0 0 0 2.484 2.484 1.695 1.695 0 0 1 1.392.875 2.643 2.643 0 0 0 3.316 1.16 1.696 1.696 0 0 1 1.633.184 2.64 2.64 0 0 0 3.492-.393c.392-.438.973-.64 1.551-.543a2.643 2.643 0 0 0 2.975-1.87 1.697 1.697 0 0 1 1.162-1.162 2.642 2.642 0 0 0 1.87-2.975 1.695 1.695 0 0 1 .543-1.551 2.642 2.642 0 0 0 .393-3.492zm-1.02 2.793a2.63 2.63 0 0 0-.84 2.404 1.705 1.705 0 0 1-1.207 1.92 2.63 2.63 0 0 0-1.801 1.801 1.704 1.704 0 0 1-1.92 1.206 2.63 2.63 0 0 0-2.404.841 1.705 1.705 0 0 1-2.253.254 2.632 2.632 0 0 0-2.53-.285c-.8.33-1.72.008-2.14-.749a2.63 2.63 0 0 0-2.157-1.355 1.705 1.705 0 0 1-1.603-1.603A2.63 2.63 0 0 0 6.285 20.6a1.705 1.705 0 0 1-.75-2.14 2.63 2.63 0 0 0-.284-2.53c-.5-.707-.39-1.675.254-2.253a2.63 2.63 0 0 0 .84-2.404 1.705 1.705 0 0 1 1.207-1.92 2.63 2.63 0 0 0 1.801-1.801 1.704 1.704 0 0 1 1.92-1.206 2.628 2.628 0 0 0 2.404-.841 1.705 1.705 0 0 1 2.253-.254 2.63 2.63 0 0 0 2.53.285c.8-.33 1.72-.008 2.14.749a2.63 2.63 0 0 0 2.157 1.355c.864.05 1.553.74 1.603 1.603a2.63 2.63 0 0 0 1.355 2.157c.757.42 1.079 1.34.75 2.14a2.63 2.63 0 0 0 .284 2.53c.5.707.39 1.675-.253 2.253z"/></g><defs><clipPath id="a"><path d="M0 0h32v32H0z"/></clipPath></defs></svg>