<svg width="26" height="26" viewBox="0 0 26 26" xmlns="http://www.w3.org/2000/svg"><path d="M26 13l-1.97-2.956.228-3.544-3.184-1.574L19.5 1.742l-3.544.228L13 0l-2.955 1.97L6.5 1.742 4.926 4.926 1.742 6.5l.229 3.545L0 13l1.97 2.955-.228 3.545 3.184 1.574L6.5 24.258l3.545-.228L13 26l2.956-1.97 3.544.228 1.575-3.184 3.183-1.574-.228-3.545L26 13zm-5.405 7.103l-.329.163-.162.328-1.255 2.537-2.823-.183-.366-.024-.305.204L13 24.698l-2.354-1.57-.305-.204-.366.024-2.824.183-1.254-2.537-.162-.328-.328-.163-2.537-1.254.182-2.824.023-.365-.203-.305L1.302 13l1.57-2.355.203-.304-.023-.366-.182-2.824 2.537-1.254.328-.163.162-.328 1.254-2.537 2.824.182.366.024.305-.203L13 1.302l2.355 1.57.305.203.365-.024 2.824-.182 1.255 2.537.162.328.328.163 2.537 1.254-.182 2.824-.024.365.203.305L24.698 13l-1.57 2.355-.203.305.024.365.182 2.824-2.536 1.254z"/><path d="M8.343 10.894v3.14l-1.928-3.14H5.37v4.686h.994v-3.146l1.941 3.146h1.027v-4.686h-.988zm3.284 3.824v-1.152h2.29v-.81h-2.29v-1.02h2.495v-.842h-3.515v4.686h3.561v-.862h-2.54zm8.397-3.824l-.776 3.225-.81-3.225h-.967l-.823 3.185-.75-3.185h-1.033l1.244 4.686h1.046l.79-3.198.803 3.198h1.026l1.264-4.686h-1.014z"/></svg>