<svg width="24" height="24" viewBox="0 0 24 24" xmlns="http://www.w3.org/2000/svg"><g clip-path="url(#a)"><path d="M13.591 11.538h-1.193V6.764a.398.398 0 0 0-.68-.281l-1.59 1.591a.398.398 0 0 0 .562.563l.912-.913v3.814h-1.194a.398.398 0 0 0 0 .796h3.183a.398.398 0 0 0 0-.796z"/><path d="M10.242 3.834a6.366 6.366 0 0 0-4.36 7.876.398.398 0 0 0 .764-.22 5.57 5.57 0 1 1 10.712-.015.398.398 0 1 0 .766.217 6.365 6.365 0 0 0-7.882-7.858zm5.697 9.489a.398.398 0 1 0-.563.563l.563.562a.398.398 0 0 0 .563-.562l-.563-.563zm1.428-.737l-.689-.398a.398.398 0 0 0-.398.69l.69.397a.398.398 0 0 0 .398-.69zm-8.743.737a.398.398 0 0 0-.563 0l-.562.563a.398.398 0 0 0 .562.562l.563-.562a.398.398 0 0 0 0-.563zm-.9-.448a.398.398 0 0 0-.402-.687l-.69.398a.398.398 0 0 0 .399.69l.689-.398a.39.39 0 0 0 .004-.003z"/><path d="M21.844 9.68L20.12 7.77l.54-2.515a.398.398 0 0 0-.267-.463l-2.45-.788-.788-2.45a.398.398 0 0 0-.462-.267l-2.517.54-1.91-1.724a.398.398 0 0 0-.533 0l-1.91 1.724-2.515-.54a.398.398 0 0 0-.463.267l-.788 2.45-2.45.788a.398.398 0 0 0-.267.462l.54 2.516-1.724 1.91a.398.398 0 0 0 0 .533l1.724 1.91-.54 2.516c-.043.2.073.4.267.462l1.853.597a.398.398 0 0 0-.111.122l-3 5.196a.398.398 0 0 0 .448.583l2.874-.772.772 2.878a.398.398 0 0 0 .73.096l2.987-5.176a.391.391 0 0 0 .046-.213l1.527 1.38a.398.398 0 0 0 .534 0l1.527-1.38a.39.39 0 0 0 .046.213l2.988 5.176a.398.398 0 0 0 .729-.096l.772-2.878 2.874.772a.398.398 0 0 0 .448-.583l-3-5.196a.398.398 0 0 0-.11-.122l1.852-.597a.398.398 0 0 0 .267-.462l-.54-2.516 1.724-1.91a.398.398 0 0 0 0-.533zM9.471 18.227l-2.507 4.345-.627-2.335a.398.398 0 0 0-.487-.282l-2.33.626 2.519-4.363a.392.392 0 0 0 .043-.25l.763 2.372c.063.194.263.31.462.267l2.256-.484a.383.383 0 0 0-.092.104zm11.01 2.355l-2.33-.627a.398.398 0 0 0-.488.28v.002l-.626 2.335-2.507-4.345a.385.385 0 0 0-.091-.104l2.254.484a.4.4 0 0 0 .463-.267l.763-2.373a.392.392 0 0 0 .044.25l2.518 4.365zm-1.088-8.84a.398.398 0 0 0-.094.35l.507 2.362-2.301.74a.398.398 0 0 0-.257.258l-.74 2.3-2.363-.506a.394.394 0 0 0-.35.094L12 18.96l-1.794-1.62a.398.398 0 0 0-.35-.094l-2.364.507-.74-2.302a.398.398 0 0 0-.257-.257l-2.301-.74.506-2.363a.398.398 0 0 0-.093-.35l-1.62-1.794 1.62-1.795a.398.398 0 0 0 .093-.35L4.194 5.44l2.301-.74a.398.398 0 0 0 .257-.257l.74-2.301 2.363.506a.392.392 0 0 0 .35-.093L12 .934l1.794 1.62a.391.391 0 0 0 .35.093l2.364-.506.74 2.301a.4.4 0 0 0 .257.257l2.301.74-.507 2.363a.398.398 0 0 0 .094.35l1.62 1.795-1.62 1.794z"/><path d="M13.929 15.61l-.206-.77a.398.398 0 0 0-.769.207l.206.769a.398.398 0 1 0 .769-.206zm1.001-1.382a.398.398 0 0 0-.691.393l.002.005.398.688a.398.398 0 0 0 .69-.398l-.398-.688zm-4.163.331a.398.398 0 0 0-.488.28v.001l-.206.769a.398.398 0 0 0 .281.487.398.398 0 0 0 .487-.281l.207-.77a.398.398 0 0 0-.281-.486zm-1.154-.477a.398.398 0 0 0-.544.146l-.398.688a.398.398 0 1 0 .69.398l.397-.688a.398.398 0 0 0-.145-.544zm2.387.639a.398.398 0 0 0-.398.398v.796a.398.398 0 1 0 .796 0v-.796a.398.398 0 0 0-.398-.398z"/></g><defs><clipPath id="a"><path d="M0 0h24v24H0z"/></clipPath></defs></svg>