<svg width="24" height="24" viewBox="0 0 24 24" fill="none" xmlns="http://www.w3.org/2000/svg"><path d="M12 12.969a2.384 2.384 0 0 0-1.638 4.111v2.15A1.64 1.64 0 0 0 12 20.87a1.64 1.64 0 0 0 1.639-1.639v-2.15A2.385 2.385 0 0 0 12 12.969zm.843 3.276a1.135 1.135 0 0 0-.358.822v2.163a.485.485 0 0 1-.97 0v-2.163c0-.308-.13-.608-.357-.822A1.23 1.23 0 0 1 12 14.122a1.23 1.23 0 0 1 .843 2.123z" fill="#414141"/><path d="M18.983 9.838h-1.73V5.253A5.26 5.26 0 0 0 12 0a5.26 5.26 0 0 0-5.253 5.253v4.585h-1.73c-.954 0-1.73.776-1.73 1.73V22.27c0 .954.776 1.73 1.73 1.73h13.966c.954 0 1.73-.776 1.73-1.73V11.568c0-.954-.776-1.73-1.73-1.73zM7.9 5.253c0-2.26 1.84-4.1 4.1-4.1s4.1 1.84 4.1 4.1v4.585H7.9V5.253zM19.56 22.27a.577.577 0 0 1-.577.576H5.017a.577.577 0 0 1-.577-.576V11.568c0-.318.259-.577.577-.577h13.966c.318 0 .577.26.577.577V22.27z" fill="#414141"/></svg>