<svg width="27" height="27" viewBox="0 0 27 27" xmlns="http://www.w3.org/2000/svg"><path d="M26.076 7.307L19.197.159A.52.52 0 0 0 18.823 0H8.571c-1.147 0-2.08.933-2.08 2.08v7.266H2.335c-.859 0-1.557.698-1.557 1.556v7.792c0 .858.698 1.556 1.557 1.556H6.49v4.674A2.08 2.08 0 0 0 8.571 27h15.57a2.08 2.08 0 0 0 2.08-2.075V7.667a.52.52 0 0 0-.145-.36zm-7.124-5.905l5.647 5.867h-5.647V1.402zM2.336 19.212a.519.519 0 0 1-.519-.518v-7.791c0-.286.233-.518.519-.518h14.02c.286 0 .519.232.519.518v7.79a.519.519 0 0 1-.518.519H2.336zm22.847 5.713a1.04 1.04 0 0 1-1.043 1.037H8.571a1.041 1.041 0 0 1-1.042-1.038V20.25h8.828c.858 0 1.556-.698 1.556-1.556v-7.791c0-.859-.698-1.557-1.556-1.557H7.529V2.08c0-.574.467-1.042 1.042-1.042h9.342v6.75c0 .287.233.52.52.52h6.75v16.617z"/><path d="M6.986 13.178a1.17 1.17 0 0 0-.642-.437c-.166-.044-.523-.066-1.07-.066H3.827v4.46h.9v-1.683h.588c.408 0 .719-.021.934-.064.158-.034.314-.105.467-.211.153-.107.28-.253.379-.44.1-.186.149-.417.149-.69 0-.355-.086-.645-.259-.869zm-.771 1.228a.591.591 0 0 1-.281.219c-.12.046-.357.07-.712.07h-.493v-1.266h.435c.324 0 .54.01.648.03a.622.622 0 0 1 .362.198.58.58 0 0 1 .143.402.6.6 0 0 1-.102.347zm5.359-.513a1.948 1.948 0 0 0-.426-.723 1.492 1.492 0 0 0-.672-.41c-.195-.057-.478-.085-.849-.085H7.981v4.46h1.695c.332 0 .598-.032.797-.095.265-.085.476-.203.633-.356.207-.2.366-.463.477-.788.091-.265.137-.582.137-.949 0-.418-.049-.769-.146-1.054zm-.876 1.832c-.061.2-.14.343-.236.43a.83.83 0 0 1-.363.185 2.448 2.448 0 0 1-.545.043h-.672V13.43h.404c.367 0 .614.014.74.043a.857.857 0 0 1 .416.21c.11.103.195.247.256.432.06.184.091.449.091.794 0 .344-.03.617-.091.817zm4.849-2.296v-.755H12.49v4.46h.9V15.24h1.862v-.754H13.39V13.43h2.157z"/></svg>