<svg width="24" height="24" viewBox="0 0 24 24" fill="none" xmlns="http://www.w3.org/2000/svg"><path d="M21.963 1.078a3.682 3.682 0 0 0-5.207 0L2.16 15.674c-.1.1-.172.224-.21.36l-1.92 6.93a.818.818 0 0 0 1.008 1.006l6.93-1.92a.82.82 0 0 0 .36-.21L22.923 7.246a3.685 3.685 0 0 0 0-5.207l-.96-.96zM3.943 16.206L15.888 4.26l3.852 3.852L7.795 20.058l-3.853-3.852zm-.77 1.544l3.078 3.078-4.258 1.18 1.18-4.258zM21.765 6.088l-.867.868-3.854-3.853.868-.868a2.045 2.045 0 0 1 2.893 0l.96.96c.798.8.798 2.094 0 2.893z" fill="#F74B4B"/></svg>