<svg width="33" height="33" viewBox="0 0 33 33" fill="none" xmlns="http://www.w3.org/2000/svg"><g clip-path="url(#a)"><path d="M32.978 27.16a2.532 2.532 0 0 0-1.256-1.875l-8.14-4.688a2.555 2.555 0 0 0-3.077.407l-1.603 1.604a1.175 1.175 0 0 1-1.57.087 46.335 46.335 0 0 1-3.7-3.327 46.375 46.375 0 0 1-3.327-3.7 1.175 1.175 0 0 1 .087-1.57l1.604-1.603a2.554 2.554 0 0 0 .407-3.076L7.715 1.278A2.532 2.532 0 0 0 5.84.022a2.531 2.531 0 0 0-2.138.725L1.286 3.163C-.401 4.85-.428 7.935 1.209 11.85c1.575 3.764 4.512 7.908 8.273 11.669 3.76 3.76 7.904 6.698 11.669 8.272 1.927.806 3.652 1.209 5.11 1.208 1.503 0 2.72-.428 3.576-1.284l2.416-2.417c.566-.565.83-1.344.725-2.137zm-9.93-5.636l8.14 4.687c.404.232.67.63.73 1.09.051.386-.049.767-.277 1.074L20.821 22.2l.44-.44a1.484 1.484 0 0 1 1.787-.236zM5.699 1.082c.461.061.858.327 1.09.73l4.687 8.14c.334.58.237 1.315-.236 1.787l-.404.404L4.628 1.359a1.463 1.463 0 0 1 1.071-.277zm23.382 29.877c-1.34 1.34-4.08 1.283-7.518-.154-3.64-1.522-7.661-4.378-11.325-8.042-3.664-3.665-6.52-7.687-8.042-11.326C.758 8 .702 5.26 2.042 3.92l1.793-1.793 6.218 10.8-.417.417a2.243 2.243 0 0 0-.164 2.996 47.461 47.461 0 0 0 3.404 3.785 47.45 47.45 0 0 0 3.785 3.405c.895.72 2.183.648 2.997-.165l.38-.38 10.835 6.183-1.792 1.792z" fill="#F74B4B"/></g><defs><clipPath id="a"><path fill="#fff" d="M0 0h33v33H0z"/></clipPath></defs></svg>