<svg width="34" height="34" viewBox="0 0 34 34" xmlns="http://www.w3.org/2000/svg"><path d="M28.057 17.97a.495.495 0 0 0-.495.495.629.629 0 0 1-1.257 0 .495.495 0 1 0-.99 0 1.62 1.62 0 0 0 1.619 1.618 1.62 1.62 0 0 0 1.618-1.618.495.495 0 0 0-.495-.495z"/><path d="M32.701 18.051l-1.392-.446a.583.583 0 0 1-.376-.38 8.981 8.981 0 0 0-1.317-2.605 9.567 9.567 0 0 0-.88-1.037 12.27 12.27 0 0 0 .303-2.803c-.02-1.26-.272-2-.77-2.26-.268-.141-1.083-.568-5.497 1.452a1.61 1.61 0 0 0-.293.175c-.297-.08-.601-.154-.907-.22-.037-.009-.075-.016-.112-.024a6.74 6.74 0 0 0 .605-2.506.495.495 0 1 0-.988-.044 5.749 5.749 0 0 1-3.767 5.148 14.345 14.345 0 0 0-3.983 0 5.728 5.728 0 0 1-2.084-1.332 5.726 5.726 0 0 1-1.688-4.076c0-1.54.6-2.987 1.688-4.075a5.726 5.726 0 0 1 4.076-1.689c1.54 0 2.987.6 4.075 1.689A5.76 5.76 0 0 1 20.47 4.5a.495.495 0 1 0 .884-.445 6.746 6.746 0 0 0-1.259-1.738A6.71 6.71 0 0 0 15.32.34a6.71 6.71 0 0 0-4.776 1.978 6.71 6.71 0 0 0-1.978 4.775c0 1.804.703 3.5 1.978 4.776a6.75 6.75 0 0 0 1.192.95c-.307.08-.613.169-.915.27a.495.495 0 0 0 .314.939 13.28 13.28 0 0 1 8.37 0 .494.494 0 1 0 .313-.94c-.302-.1-.607-.19-.915-.27a6.75 6.75 0 0 0 2.055-2.008 18.687 18.687 0 0 1 .935.207l-.016.065c-.241 1.145-.226 2.158.047 3.01a3.583 3.583 0 0 0 1.312 1.844c.738.54 1.628.773 2.435.773.608 0 1.167-.132 1.579-.365.465-.263.855-.818 1.163-1.652a7.99 7.99 0 0 1 1.577 2.829c.153.488.534.871 1.018 1.027l1.393.446c.365.117.61.453.61.837v2.31c0 .383-.245.72-.61.836l-2.244.719a1.529 1.529 0 0 0-.856.695c-.881 1.523-2.267 2.784-4.12 3.747a.775.775 0 0 0-.406.546l-.719 3.806a.222.222 0 0 1-.218.18H21.5a.223.223 0 0 1-.218-.18l-.398-2.103A.778.778 0 0 0 20 29.76a20.684 20.684 0 0 1-5.35.102.784.784 0 0 0-.858.628l-.378 1.999a.222.222 0 0 1-.219.18H10.86a.223.223 0 0 1-.219-.182l-.692-3.594a.776.776 0 0 0-.4-.54c-3.156-1.686-4.825-4.502-4.825-8.143 0-1.84.402-3.467 1.196-4.836.741-1.278 1.823-2.334 3.216-3.14a.495.495 0 0 0-.495-.857c-2.702 1.563-4.33 3.974-4.78 7.036l-.142-.014a2.463 2.463 0 0 0-.182-.987c-.287-.713-.876-1.229-1.502-1.312-.493-.066-.962.143-1.288.573-.472.624-.395 1.118-.247 1.422.25.514.89.877 1.953 1.105a2.22 2.22 0 0 1-.097.132c-.628.788-1.368.962-1.848.979a.52.52 0 0 0-.507.516v.003c0 .277.22.504.496.517l.112.002c.608 0 1.584-.224 2.521-1.4a2.82 2.82 0 0 0 .361-.583c.094.01.184.02.27.027-.017.268-.027.54-.027.817 0 2.06.491 3.897 1.46 5.46.893 1.441 2.172 2.621 3.802 3.509l.673 3.494c.108.571.609.986 1.19.986h2.337c.582 0 1.083-.415 1.191-.986l.342-1.807a21.73 21.73 0 0 0 5.22-.098l.361 1.905c.109.571.61.986 1.191.986h2.337c.582 0 1.082-.415 1.19-.986l.7-3.705c1.977-1.046 3.467-2.419 4.43-4.083a.54.54 0 0 1 .3-.247l2.244-.72A1.863 1.863 0 0 0 34 22.14v-2.31c0-.815-.522-1.53-1.299-1.779zm-4.726-5.88c-.19 1.628-.7 3.021-1.214 3.312-.584.33-1.93.394-2.942-.345-1.013-.741-1.35-2.073-.975-3.852a.597.597 0 0 1 .34-.414c2.477-1.134 3.905-1.505 4.436-1.505.08 0 .14.009.18.024.159.17.368 1.136.175 2.78zM1.39 17.663c-.05-.106.07-.291.147-.392.121-.16.233-.194.317-.194.018 0 .035.002.05.004.228.03.547.28.715.7.04.1.092.263.104.467-.685-.142-1.217-.346-1.333-.585z"/></svg>