<svg width="26" height="26" viewBox="0 0 26 26" xmlns="http://www.w3.org/2000/svg"><path d="M13 11.267a3.037 3.037 0 0 0 3.033-3.034A3.037 3.037 0 0 0 13 5.2a3.037 3.037 0 0 0-3.033 3.033A3.037 3.037 0 0 0 13 11.267zm0-5.2a2.17 2.17 0 0 1 2.167 2.166A2.17 2.17 0 0 1 13 10.4a2.17 2.17 0 0 1-2.167-2.167A2.17 2.17 0 0 1 13 6.067z"/><path d="M12.923 23.728l6.648-9.601c2.493-3.324 2.133-8.788-.772-11.693A8.254 8.254 0 0 0 12.923 0c-2.22 0-4.306.865-5.876 2.434-2.904 2.904-3.265 8.368-.781 11.68l6.657 9.614zM7.66 3.047a7.396 7.396 0 0 1 5.263-2.18c1.988 0 3.857.774 5.264 2.18 2.621 2.621 2.944 7.556.681 10.573l-5.945 8.585-5.954-8.598c-2.253-3.004-1.93-7.939.691-10.56z"/><path d="M18.25 18.636a.433.433 0 0 0-.101.86c4.557.537 6.984 1.983 6.984 2.82 0 1.177-4.616 2.817-12.133 2.817-7.517 0-12.133-1.64-12.133-2.816 0-.838 2.427-2.284 6.984-2.82a.434.434 0 0 0-.102-.86C3.187 19.173 0 20.686 0 22.316 0 24.147 4.465 26 13 26s13-1.853 13-3.683c0-1.63-3.187-3.143-7.75-3.68z"/></svg>