<svg width="28" height="28" viewBox="0 0 28 28" xmlns="http://www.w3.org/2000/svg"><path d="M14.091 6.136a3.584 3.584 0 0 0-3.58 3.58 3.584 3.584 0 0 0 3.58 3.58 3.584 3.584 0 0 0 3.58-3.58 3.584 3.584 0 0 0-3.58-3.58zm0 6.136a2.56 2.56 0 0 1-2.556-2.556 2.56 2.56 0 0 1 2.556-2.557 2.56 2.56 0 0 1 2.557 2.557 2.56 2.56 0 0 1-2.557 2.556z" fill="#FA3131"/><path d="M20.935 2.872A9.742 9.742 0 0 0 14 0a9.741 9.741 0 0 0-6.934 2.872C3.639 6.3 3.213 12.747 6.144 16.654L14.001 28l7.844-11.33c2.943-3.923 2.517-10.37-.91-13.798zm.081 13.2l-7.015 10.131-7.027-10.147c-2.658-3.544-2.277-9.368.816-12.46A8.725 8.725 0 0 1 14 1.022c2.347 0 4.552.913 6.212 2.572 3.093 3.093 3.474 8.917.804 12.477z" fill="#FA3131"/></svg>