<svg width="24" height="24" viewBox="0 0 24 24" fill="none" xmlns="http://www.w3.org/2000/svg"><path d="M12.078 5.26A3.072 3.072 0 0 0 9.01 8.328a3.072 3.072 0 0 0 3.068 3.068 3.072 3.072 0 0 0 3.069-3.068 3.072 3.072 0 0 0-3.069-3.068zm0 5.26a2.194 2.194 0 0 1-2.191-2.192c0-1.209.983-2.192 2.191-2.192 1.209 0 2.192.983 2.192 2.192a2.194 2.194 0 0 1-2.192 2.191z" fill="#BABABA"/><path d="M17.944 2.462A8.35 8.35 0 0 0 12.001 0a8.35 8.35 0 0 0-5.944 2.462c-2.938 2.937-3.303 8.464-.79 11.813L12 24l6.724-9.711c2.522-3.363 2.157-8.89-.781-11.827zm.07 11.314L12 22.46l-6.023-8.697c-2.279-3.039-1.952-8.03.7-10.681A7.479 7.479 0 0 1 12 .877a7.48 7.48 0 0 1 5.323 2.205c2.652 2.651 2.978 7.642.69 10.694z" fill="#BABABA"/></svg>