<svg width="25" height="25" viewBox="0 0 25 25" xmlns="http://www.w3.org/2000/svg"><path d="M12.5 0C8.783 0 5.272 1.729 2.93 4.518v-.807a.732.732 0 1 0-1.465 0v3.111c0 .7.903.8.732.733l.045-.002 2.93-.181a.732.732 0 1 0-.09-1.462l-1.484.092C5.653 3.206 8.979 1.465 12.5 1.465c6.058 0 11.035 4.977 11.035 11.035a.732.732 0 1 0 1.465 0C25 5.634 19.366 0 12.5 0zm10.258 17.447l-2.93.181a.732.732 0 0 0-.686.776.74.74 0 0 0 .776.686l1.484-.092c-2.056 2.796-5.382 4.537-8.902 4.537-6.058 0-11.035-4.977-11.035-11.035A.732.732 0 1 0 0 12.5C0 19.366 5.634 25 12.5 25c3.717 0 7.229-1.729 9.57-4.518v.807a.732.732 0 1 0 1.465 0v-3.111c0-.403-.386-.753-.777-.731z"/></svg>