<svg width="29" height="29" viewBox="0 0 29 29" xmlns="http://www.w3.org/2000/svg"><path d="M23.937 2.077a.483.483 0 0 0-.097.01c-3.15.645-6.427.064-9.163-1.624L14.039.07a.483.483 0 0 0-.505 0l-.638.392a12.627 12.627 0 0 1-9.164 1.622.483.483 0 0 0-.58.475V17.42c0 1.91.507 3.785 1.472 5.433a10.35 10.35 0 0 0 4.795 4.277l4.174 1.83a.483.483 0 0 0 .387 0l4.175-1.83c.235-.103.466-.214.691-.334a.484.484 0 1 0-.453-.854c-.204.108-.413.21-.626.303l-3.98 1.745-3.98-1.744a9.391 9.391 0 0 1-4.35-3.882 9.78 9.78 0 0 1-1.338-4.946V3.137a13.598 13.598 0 0 0 9.28-1.852l.388-.236.386.236a13.59 13.59 0 0 0 9.28 1.853v14.279a.483.483 0 0 0 .968 0V2.56a.483.483 0 0 0-.484-.483z"/><path d="M13.751 3.629a.483.483 0 0 0-.69-.18A10.586 10.586 0 0 1 5.667 4.7a.483.483 0 0 0-.58.474v11.548A8.19 8.19 0 0 0 6.3 21.008a8.394 8.394 0 0 0 3.94 3.366.483.483 0 1 0 .374-.892 7.431 7.431 0 0 1-3.49-2.98 7.227 7.227 0 0 1-1.071-3.78V5.749c2.593.376 5.237-.14 7.497-1.466a.483.483 0 0 0 .201-.653zm11.93 20.681a.483.483 0 0 0-.632-.002l-2.311 2.312a.858.858 0 0 0-.494 0l-4.245-4.245a.483.483 0 0 0-.684.683l4.244 4.245a.955.955 0 0 0 .928 1.214.967.967 0 0 0 .967-.967.946.946 0 0 0-.036-.247l2.311-2.311a.483.483 0 0 0-.048-.682z"/><path d="M21.379 10.774l-1.934-1.933a.483.483 0 0 0-.683 0l-5.942 5.942-1.592-1.592a.483.483 0 0 0-.683 0L8.61 15.124a.483.483 0 0 0 0 .684l3.867 3.867a.483.483 0 0 0 .684 0l8.217-8.218a.483.483 0 0 0 0-.683zm-8.56 7.876l-3.18-3.184 1.247-1.25 1.596 1.592a.483.483 0 0 0 .683 0l5.939-5.942 1.252 1.25-7.536 7.534z"/></svg>