<svg width="24" height="24" viewBox="0 0 24 24" xmlns="http://www.w3.org/2000/svg"><path d="M21.6 20.746L20.226 5.271a.661.661 0 0 0-.658-.604h-2.827A4.745 4.745 0 0 0 12 0a4.745 4.745 0 0 0-4.741 4.667H4.432a.658.658 0 0 0-.658.604L2.4 20.746c0 .02-.005.04-.005.059C2.395 22.567 4.01 24 5.997 24h12.005c1.988 0 3.603-1.433 3.603-3.195 0-.02 0-.04-.005-.059zM12 1.326a3.42 3.42 0 0 1 3.416 3.341H8.584A3.42 3.42 0 0 1 12 1.325zm6.002 21.349H5.997c-1.246 0-2.257-.825-2.277-1.84L5.036 5.997h2.218V8.01a.66.66 0 0 0 .663.662.66.66 0 0 0 .662-.662V5.998h6.837V8.01a.66.66 0 0 0 .662.662.66.66 0 0 0 .663-.662V5.998h2.218l1.32 14.836c-.019 1.016-1.035 1.84-2.277 1.84z"/></svg>