<svg width="21" height="21" viewBox="0 0 21 21" fill="none" xmlns="http://www.w3.org/2000/svg"><path d="M19.25 1.969h-2.844V.656a.656.656 0 1 0-1.312 0V1.97h-3.938V.656a.656.656 0 1 0-1.312 0V1.97H5.906V.656a.656.656 0 1 0-1.312 0V1.97H1.75A1.75 1.75 0 0 0 0 3.719v15.53A1.75 1.75 0 0 0 1.75 21h17.5A1.75 1.75 0 0 0 21 19.25V3.718a1.75 1.75 0 0 0-1.75-1.75zm.438 17.28a.438.438 0 0 1-.438.439H1.75a.438.438 0 0 1-.438-.438V3.718c0-.24.197-.437.438-.437h2.844v1.313a.656.656 0 1 0 1.312 0V3.28h3.938v1.313a.656.656 0 1 0 1.312 0V3.28h3.938v1.313a.656.656 0 1 0 1.312 0V3.28h2.844c.241 0 .438.196.438.437V19.25z" fill="#F74B4B"/><path d="M7.219 7.875H4.594v1.969h2.625V7.875zm0 3.281H4.594v1.969h2.625v-1.969zm0 3.282H4.594v1.968h2.625v-1.968zm4.594 0H9.187v1.968h2.626v-1.968zm0-3.282H9.187v1.969h2.626v-1.969zm0-3.281H9.187v1.969h2.626V7.875zm4.593 6.563h-2.625v1.968h2.625v-1.968zm0-3.282h-2.625v1.969h2.625v-1.969zm0-3.281h-2.625v1.969h2.625V7.875z" fill="#F74B4B"/></svg>