<svg width="34" height="34" viewBox="0 0 34 34" fill="none" xmlns="http://www.w3.org/2000/svg"><path d="M21.038 3H10.962C9.991 3 9.2 3.79 9.2 4.762v20.476c0 .971.79 1.762 1.762 1.762h10.076c.971 0 1.762-.79 1.762-1.762V4.762C22.8 3.791 22.01 3 21.038 3zM10 6.2h12v15.2H10V6.2zm.962-2.4h10.076c.53 0 .962.432.962.962V5.4H10v-.638c0-.53.432-.962.962-.962zm10.076 22.4H10.962a.963.963 0 0 1-.962-.962V22.2h12v3.038c0 .53-.431.962-.962.962z" fill="#EF4949"/><path d="M16 22.6c-.882 0-1.6.718-1.6 1.6a1.6 1.6 0 1 0 1.6-1.6zm0 2.4a.8.8 0 1 1 .002-1.601A.8.8 0 0 1 16 25zM14.4 5H16a.4.4 0 1 0 0-.8h-1.6a.4.4 0 1 0 0 .8zm2.8 0h.4a.4.4 0 1 0 0-.8h-.4a.4.4 0 1 0 0 .8zm9.445-.172a.4.4 0 1 0-.566.565 3.838 3.838 0 0 1 0 5.421.4.4 0 1 0 .566.566 4.638 4.638 0 0 0 0-6.552z" fill="#EF4949"/><path d="M24.96 5.738a.4.4 0 1 0-.565.566c.495.494.767 1.154.767 1.855 0 .702-.272 1.36-.767 1.855a.4.4 0 1 0 .566.566 3.4 3.4 0 0 0 1.001-2.42c0-.916-.355-1.776-1.001-2.422zM5.92 5.393a.4.4 0 1 0-.565-.565 4.638 4.638 0 0 0 0 6.552.399.399 0 0 0 .566 0 .4.4 0 0 0 0-.566 3.837 3.837 0 0 1 0-5.42z" fill="#EF4949"/><path d="M7.605 5.628a.4.4 0 0 0-.565 0 3.4 3.4 0 0 0-1.002 2.42c0 .916.356 1.776 1.002 2.422a.399.399 0 0 0 .565 0 .4.4 0 0 0 0-.566 2.607 2.607 0 0 1-.767-1.855c0-.702.272-1.36.767-1.856a.4.4 0 0 0 0-.565z" fill="#EF4949"/></svg>