<svg width="23" height="27" viewBox="0 0 23 27" xmlns="http://www.w3.org/2000/svg"><path fill-rule="evenodd" clip-rule="evenodd" d="M22.3 23.34L20.754 5.93a.744.744 0 0 0-.74-.68h-3.18A5.338 5.338 0 0 0 11.5 0a5.338 5.338 0 0 0-5.334 5.25h-3.18a.74.74 0 0 0-.74.68l-.391 4.403c.067.054.116.11.145.167.338.677.94.447 1.318.158l.347-3.91H6.16V7h1.49v-.253h7.692V7h1.49v-.253h2.496l1.486 16.692c-.022 1.143-1.165 2.07-2.562 2.07H4.747c-1.402 0-2.54-.927-2.562-2.07l.23-2.584C1.997 20.262 1.31 20.689 1 21l-.095.032L.7 23.339a.268.268 0 0 1-.003.033.267.267 0 0 0-.003.034C.694 25.387 2.511 27 4.747 27h13.506c2.236 0 4.052-1.612 4.052-3.595 0-.022 0-.044-.005-.066zM11.5 1.49a3.847 3.847 0 0 1 3.843 3.76H7.657A3.847 3.847 0 0 1 11.5 1.49z"/></svg>