<svg width="22" height="23" viewBox="0 0 22 23" fill="none" xmlns="http://www.w3.org/2000/svg"><g clip-path="url(#a)" fill="#fff"><path d="M14.954 6.97a.44.44 0 0 0-.43.449.44.44 0 0 0 .43.449.44.44 0 0 0 .43-.45.44.44 0 0 0-.43-.448zm-7.823 8.162a.44.44 0 0 0-.43.449c0 .248.192.449.43.449s.431-.2.431-.45a.44.44 0 0 0-.43-.448z"/><path d="M21.524 2.764a.418.418 0 0 0-.403.12l-1.785 1.878h-.856l-.942-1.019v-.905l1.76-1.863a.462.462 0 0 0 .112-.42.442.442 0 0 0-.281-.32A4.133 4.133 0 0 0 17.754 0c-1.402 0-2.676.682-3.495 1.872a4.597 4.597 0 0 0-.665 3.784l-3.171 3.31L5.14 3.44V2.355a.453.453 0 0 0-.21-.385L1.887.064a.417.417 0 0 0-.525.068L.143 1.402a.464.464 0 0 0-.065.549l1.827 3.176a.427.427 0 0 0 .369.218h1.039l5.283 5.526-3.159 3.296c-1.251-.353-2.56-.106-3.628.694-1.14.854-1.793 2.183-1.793 3.646 0 .491.076.974.225 1.435a.438.438 0 0 0 .31.294.419.419 0 0 0 .404-.121l1.784-1.877h.86l.98 1.023v.898L2.782 22.02a.462.462 0 0 0-.116.42.44.44 0 0 0 .282.324c.442.156.904.235 1.375.235 1.402 0 2.675-.682 3.494-1.871a4.599 4.599 0 0 0 .665-3.786l2.537-2.647.582.659-.267.278a.463.463 0 0 0 0 .635c.168.176.44.176.609 0l.242-.252 5.453 6.18.012.014a2.507 2.507 0 0 0 3.654 0c1.006-1.05 1.006-2.76 0-3.812a.338.338 0 0 0-.014-.013l-5.933-5.68.24-.248a.463.463 0 0 0 0-.636.418.418 0 0 0-.61 0l-.265.277-.632-.606 2.55-2.66c.362.101.736.152 1.115.152 2.374 0 4.305-2.015 4.305-4.492 0-.49-.076-.973-.225-1.434a.437.437 0 0 0-.31-.294zM3.796 4.579a.417.417 0 0 0-.305-.127h-.973L.99 1.788l.742-.774L4.279 2.61v1.016a.46.46 0 0 0 .125.317l5.41 5.658-.609.635-5.41-5.657zm10.95 8.763L20.7 19.04a1.856 1.856 0 0 1-.006 2.535c-.671.7-1.757.702-2.43.006l-5.471-6.2 1.954-2.04zm-.634-.608l-1.903 1.985-.581-.659 1.851-1.932.633.606zm3.642-4.648a3.31 3.31 0 0 1-1.1-.187.419.419 0 0 0-.442.108L7.69 16.898a.463.463 0 0 0-.104.461 3.685 3.685 0 0 1-.47 3.246c-.654.95-1.673 1.496-2.794 1.496-.126 0-.252-.007-.376-.021l1.368-1.416a.459.459 0 0 0 .127-.319v-1.27a.46.46 0 0 0-.126-.318l-1.233-1.286a.421.421 0 0 0-.304-.132H2.56a.422.422 0 0 0-.306.133L.898 18.9a3.79 3.79 0 0 1-.02-.392c0-1.17.522-2.233 1.434-2.916a3.292 3.292 0 0 1 3.11-.49.417.417 0 0 0 .442-.108L14.385 6.1a.461.461 0 0 0 .104-.46 3.683 3.683 0 0 1 .469-3.245c.655-.952 1.674-1.498 2.796-1.498.13 0 .258.008.386.023l-1.339 1.418a.46.46 0 0 0-.124.315v1.27c0 .117.044.229.121.313l1.19 1.286a.422.422 0 0 0 .31.137h1.217a.422.422 0 0 0 .306-.133L21.178 4.1c.013.13.02.26.02.391 0 1.982-1.545 3.594-3.444 3.594z"/><path d="M13.432 8.371l-5.388 5.622a.463.463 0 0 0 0 .635.42.42 0 0 0 .61 0l5.387-5.621a.463.463 0 0 0 0-.636.418.418 0 0 0-.609 0zm5.44 11.934a.42.42 0 0 0 .61-.001.463.463 0 0 0-.002-.636l-3.88-4.036a.418.418 0 0 0-.61.001.463.463 0 0 0 .002.636l3.88 4.036z"/></g><defs><clipPath id="a"><path fill="#fff" d="M0 0h22v23H0z"/></clipPath></defs></svg>