<svg width="40" height="40" viewBox="0 0 40 40" fill="none" xmlns="http://www.w3.org/2000/svg"><path d="M34.142 5.858A19.87 19.87 0 0 0 20 0 19.87 19.87 0 0 0 5.858 5.858 19.87 19.87 0 0 0 0 20c0 5.342 2.08 10.365 5.858 14.142A19.87 19.87 0 0 0 20 40c5.342 0 10.365-2.08 14.142-5.858A19.869 19.869 0 0 0 40 20a19.87 19.87 0 0 0-5.858-14.142zM20 37.656c-9.736 0-17.656-7.92-17.656-17.656 0-9.736 7.92-17.656 17.656-17.656 9.736 0 17.656 7.92 17.656 17.656 0 9.736-7.92 17.656-17.656 17.656z" fill="#F74B4B"/><path d="M29.555 13.583a1.172 1.172 0 0 0-1.657 0L17.549 23.93l-5.447-5.447a1.172 1.172 0 0 0-1.657 1.657l6.276 6.276a1.168 1.168 0 0 0 1.657 0L29.555 15.24a1.17 1.17 0 0 0 0-1.657z" fill="#F74B4B"/></svg>