<svg width="30" height="30" viewBox="0 0 30 30" xmlns="http://www.w3.org/2000/svg"><g clip-path="url(#a)"><path d="M28.189 11.018a.67.67 0 0 0-.661-.015l-4.33 2.33v-1.997c0-.37-.3-.67-.67-.67H21.44a5.994 5.994 0 0 0 2.228-4.663A6.01 6.01 0 0 0 17.664 0a6.013 6.013 0 0 0-5.836 4.595 4.52 4.52 0 0 0-3.486-1.642 4.532 4.532 0 0 0-4.527 4.526c0 1.242.503 2.37 1.316 3.188H4.52c-.37 0-.67.3-.67.67v3.04H2.155c-.37 0-.67.3-.67.669v2.633c0 .37.3.67.67.67H3.85v3.04c0 .37.3.67.67.67h7.9L8.79 29.02a.67.67 0 0 0 1.188.62l3.546-6.803 3.546 6.802a.67.67 0 1 0 1.188-.62l-3.63-6.962h7.9c.37 0 .67-.3.67-.67V19.39l4.33 2.331a.67.67 0 0 0 .987-.59v-9.54a.67.67 0 0 0-.326-.574zM3.85 17.01H2.825v-1.295H3.85v1.295zM17.664 1.34a4.67 4.67 0 0 1 4.664 4.663 4.669 4.669 0 0 1-4.664 4.664A4.669 4.669 0 0 1 13 6.003a4.67 4.67 0 0 1 4.664-4.664zM12.55 9.143c.358.58.812 1.095 1.339 1.523h-2.336a4.54 4.54 0 0 0 .997-1.523zM8.342 4.292a3.191 3.191 0 0 1 3.188 3.187 3.191 3.191 0 0 1-3.188 3.188 3.191 3.191 0 0 1-3.187-3.188 3.191 3.191 0 0 1 3.187-3.187zm13.516 10.163v6.263H5.19v-8.712h16.67v2.448zm5.317 5.556l-3.977-2.14v-3.016l3.977-2.142v7.298z"/><path d="M8.342 5.445A2.036 2.036 0 0 0 6.308 7.48c0 1.122.912 2.034 2.034 2.034a2.036 2.036 0 0 0 2.034-2.034 2.036 2.036 0 0 0-2.034-2.034zm0 2.863a.83.83 0 0 1 0-1.658.83.83 0 0 1 0 1.658zm9.322-5.226a2.925 2.925 0 0 0-2.921 2.921c0 1.61 1.31 2.921 2.921 2.921 1.61 0 2.921-1.31 2.921-2.92a2.924 2.924 0 0 0-2.921-2.922zm0 4.503c-.872 0-1.582-.71-1.582-1.582 0-.872.71-1.582 1.582-1.582.872 0 1.582.71 1.582 1.582 0 .872-.71 1.582-1.582 1.582zm-2.161 6.368h-7.28a.636.636 0 0 0-.637.636v3.546c0 .352.285.637.637.637h7.28a.636.636 0 0 0 .637-.636V14.59a.636.636 0 0 0-.637-.637zm-.636 3.546H8.86v-2.273h6.008v2.273zm4.149-1.57a.67.67 0 1 0 0-1.34.67.67 0 0 0 0 1.34zm0 2.206a.67.67 0 1 0 0-1.34.67.67 0 0 0 0 1.34z"/></g><defs><clipPath id="a"><path d="M0 0h30v30H0z"/></clipPath></defs></svg>