<svg width="51" height="51" viewBox="0 0 51 51" fill="none" xmlns="http://www.w3.org/2000/svg"><path d="M27.695 9.218V1.03c0-.572-.457-1.03-1.03-1.03-.572 0-1.03.458-1.03 1.03v8.198c0 .572.458 1.03 1.03 1.03a1.041 1.041 0 0 0 1.03-1.04zm-8.781 3.339c.26 0 .53-.104.729-.301a1.024 1.024 0 0 0 0-1.457l-5.795-5.795a1.024 1.024 0 0 0-1.457 0 1.024 1.024 0 0 0 0 1.457l5.795 5.795c.198.197.468.301.728.301zm24.782 5.858h-8.198c-.572 0-1.03.458-1.03 1.03 0 .572.458 1.03 1.03 1.03h8.198c.573 0 1.03-.458 1.03-1.03 0-.572-.457-1.03-1.03-1.03zm-35.102 1.03c0 .572.457 1.03 1.03 1.03h8.198c.572 0 1.03-.458 1.03-1.03 0-.572-.458-1.03-1.03-1.03H9.624a1.04 1.04 0 0 0-1.03 1.03zm25.676-6.596l5.795-5.795a1.024 1.024 0 0 0 0-1.457 1.024 1.024 0 0 0-1.456 0l-5.795 5.795a1.023 1.023 0 0 0 0 1.457c.198.197.468.301.728.301.26 0 .53-.104.728-.301z" fill="#F74B4B"/><path d="M6.274 30.535v17.843a2.03 2.03 0 0 0 2.028 2.029h6.066c.697 0 1.3-.343 1.675-.874A5.374 5.374 0 0 0 19.726 51h16.25c3.642 0 5.962-1.914 6.378-5.244l2.185-13.9c.01-.051.01-.103.01-.155a5.386 5.386 0 0 0-5.378-5.38h-8.126v-5.836c0-2.528-.738-4.349-2.205-5.43-2.32-1.697-5.494-.729-5.629-.687-.426.135-.718.53-.718.978v6.637c0 5.171-6.013 6.94-6.263 7.013a.833.833 0 0 0-.343.176 2.03 2.03 0 0 0-1.509-.676H8.302a2.034 2.034 0 0 0-2.028 2.04zm10.133.479c.125.01.25 0 .375-.031.322-.094 7.771-2.248 7.771-8.99v-5.815c.801-.125 2.123-.166 3.07.541.904.666 1.362 1.935 1.362 3.756v6.866c0 .573.458 1.03 1.03 1.03h9.156a3.32 3.32 0 0 1 3.319 3.246l-2.175 13.827v.031c-.28 2.29-1.737 3.444-4.338 3.444H19.726a3.321 3.321 0 0 1-3.319-3.319V31.014zm-8.073-.458h6.013v17.79H8.334v-17.79z" fill="#2C2F33"/></svg>