<svg width="52" height="52" viewBox="0 0 52 52" fill="none" xmlns="http://www.w3.org/2000/svg"><path d="M42.91 27.484a.757.757 0 0 0-.756.757.962.962 0 0 1-1.922 0 .757.757 0 1 0-1.514 0 2.477 2.477 0 0 0 2.475 2.474 2.477 2.477 0 0 0 2.474-2.474.757.757 0 0 0-.757-.757z" fill="#F74B4B"/><path d="M50.014 27.608l-2.13-.683a.891.891 0 0 1-.575-.582 13.732 13.732 0 0 0-2.014-3.983 14.625 14.625 0 0 0-1.345-1.587c.314-1.378.485-2.938.463-4.286-.031-1.928-.417-3.059-1.178-3.457-.41-.215-1.657-.868-8.407 2.222a2.45 2.45 0 0 0-.448.266c-.455-.122-.92-.235-1.388-.337l-.171-.035a10.31 10.31 0 0 0 .926-3.833.757.757 0 1 0-1.512-.067 8.792 8.792 0 0 1-2.573 5.836 8.76 8.76 0 0 1-3.188 2.037 21.942 21.942 0 0 0-6.091 0 8.761 8.761 0 0 1-3.188-2.037 8.758 8.758 0 0 1-2.582-6.233c0-2.355.917-4.569 2.582-6.234a8.758 8.758 0 0 1 6.234-2.582c2.354 0 4.568.917 6.233 2.582a8.812 8.812 0 0 1 1.643 2.27.757.757 0 1 0 1.352-.681 10.318 10.318 0 0 0-1.924-2.66A10.262 10.262 0 0 0 23.428.52a10.261 10.261 0 0 0-7.304 3.025 10.262 10.262 0 0 0-3.025 7.304 10.26 10.26 0 0 0 3.025 7.303 10.32 10.32 0 0 0 1.823 1.453c-.47.122-.937.259-1.4.413a.757.757 0 0 0 .48 1.436 20.31 20.31 0 0 1 12.8 0 .756.756 0 1 0 .48-1.436 21.293 21.293 0 0 0-1.399-.414h.001a10.32 10.32 0 0 0 3.141-3.07 28.704 28.704 0 0 1 1.43.315c-.008.033-.017.066-.023.1-.37 1.75-.346 3.3.07 4.603.375 1.172 1.05 2.12 2.008 2.821 1.128.826 2.49 1.182 3.724 1.182.93 0 1.786-.202 2.414-.558.712-.403 1.308-1.252 1.78-2.526.218.254.424.515.619.782a12.217 12.217 0 0 1 1.792 3.544 2.407 2.407 0 0 0 1.557 1.57l2.13.682c.56.18.935.694.935 1.28v3.532a1.34 1.34 0 0 1-.935 1.28l-3.431 1.1a2.338 2.338 0 0 0-1.309 1.063c-1.348 2.33-3.468 4.258-6.3 5.73-.328.17-.554.475-.623.836l-1.099 5.82a.34.34 0 0 1-.334.277h-3.573a.34.34 0 0 1-.334-.277l-.61-3.216a1.19 1.19 0 0 0-1.351-.957c-1.54.233-3.126.351-4.715.351-1.182 0-2.349-.066-3.468-.196a1.199 1.199 0 0 0-1.311.962l-.579 3.056a.34.34 0 0 1-.334.277h-3.574a.34.34 0 0 1-.334-.28l-1.058-5.496a1.188 1.188 0 0 0-.61-.826c-4.83-2.578-7.382-6.885-7.382-12.454 0-2.814.616-5.303 1.83-7.397 1.133-1.954 2.788-3.57 4.918-4.802a.757.757 0 0 0-.757-1.31c-4.132 2.39-6.624 6.077-7.31 10.76l-.218-.02a3.768 3.768 0 0 0-.277-1.51c-.44-1.091-1.341-1.88-2.298-2.007-.754-.1-1.472.22-1.97.877-.722.954-.604 1.71-.378 2.175.381.785 1.36 1.34 2.987 1.69a2.943 2.943 0 0 1-.148.201c-.96 1.205-2.092 1.472-2.827 1.497a.794.794 0 0 0-.775.79v.004c0 .425.335.77.76.79.054.003.11.004.17.004.93 0 2.422-.343 3.856-2.14.226-.285.41-.584.552-.893.143.016.28.03.412.042-.026.41-.04.825-.04 1.249 0 3.151.751 5.96 2.232 8.351 1.367 2.204 3.322 4.009 5.816 5.366l1.028 5.343a1.855 1.855 0 0 0 1.821 1.51h3.574c.89 0 1.656-.635 1.821-1.51l.523-2.763a31.92 31.92 0 0 0 3.348.174c1.56 0 3.118-.11 4.637-.324l.551 2.914a1.855 1.855 0 0 0 1.822 1.508h3.573c.89 0 1.656-.634 1.821-1.509l1.07-5.666c3.024-1.599 5.303-3.699 6.775-6.243a.827.827 0 0 1 .46-.38l3.432-1.099A2.85 2.85 0 0 0 52 33.861V30.33a2.849 2.849 0 0 0-1.986-2.721zm-7.228-8.994c-.291 2.49-1.073 4.621-1.858 5.066-.892.506-2.952.603-4.499-.528-1.549-1.133-2.064-3.17-1.49-5.892a.913.913 0 0 1 .519-.632c3.788-1.734 5.973-2.302 6.784-2.302a.79.79 0 0 1 .275.037c.243.26.563 1.737.269 4.25zM2.125 27.016c-.079-.162.106-.446.224-.6.185-.246.356-.296.486-.296a.56.56 0 0 1 .076.005c.348.047.835.43 1.094 1.072.06.15.14.401.158.713-1.048-.217-1.862-.53-2.038-.894z" fill="#1F1F1F"/><path d="M24.163 9.981V7.273c.934.067 1.281.494 1.602.494.4 0 .587-.507.587-.76 0-.654-1.281-.934-2.189-.961v-.36c0-.16-.2-.307-.4-.307-.227 0-.387.146-.387.306v.387c-1.267.134-2.535.8-2.535 2.482 0 1.707 1.335 2.188 2.535 2.615v3.135c-1.36-.107-1.72-1.04-2.16-1.04-.335 0-.615.44-.615.76 0 .653 1.121 1.547 2.775 1.574v.413c0 .16.16.307.387.307.2 0 .4-.146.4-.307v-.453c1.441-.2 2.429-1.107 2.429-2.748 0-1.815-1.268-2.402-2.428-2.829zm-.707-.253c-.707-.267-1.28-.547-1.28-1.307 0-.694.533-1.028 1.28-1.121v2.428zm.627 4.55v-2.816c.654.28 1.174.654 1.174 1.494 0 .76-.453 1.188-1.174 1.321z" fill="#F74B4B"/></svg>