<svg width="47" height="47" viewBox="0 0 47 47" fill="none" xmlns="http://www.w3.org/2000/svg"><g clip-path="url(#a)"><path d="M40.296 37.794c-1.34 0-2.43 1.09-2.43 2.43s1.09 2.431 2.43 2.431 2.43-1.09 2.43-2.43-1.09-2.43-2.43-2.43zm0 3.42a.991.991 0 0 1 0-1.98.991.991 0 0 1 0 1.98z" fill="#F74B4B"/><path d="M46.844 40.099a6.37 6.37 0 0 0-2.12-4.608l-14.5-13.078 12.82-12.82a1.36 1.36 0 0 0 .248-.1l2.776-1.464a1.34 1.34 0 0 0 .706-.994 1.34 1.34 0 0 0-.38-1.158l-3.127-3.125a1.339 1.339 0 0 0-1.157-.381 1.34 1.34 0 0 0-.994.705l-1.465 2.776a1.369 1.369 0 0 0-.101.25l-6.051 6.052a.72.72 0 1 0 1.018 1.018L40.07 7.62l1.455 1.455-14.2 14.202-1.456-1.456 6.199-6.198a.72.72 0 1 0-1.019-1.019l-4.497 4.498-4.895-4.415a11.05 11.05 0 0 0-2.628-11.45A11.074 11.074 0 0 0 7.244.733a.72.72 0 0 0-.251 1.182l5.654 5.654a.88.88 0 0 1 .26.626.88.88 0 0 1-.26.626l-3.672 3.672a.88.88 0 0 1-.626.26.88.88 0 0 1-.627-.26L2.068 6.84a.72.72 0 0 0-1.181.252A11.074 11.074 0 0 0 3.39 18.875a11.091 11.091 0 0 0 11.227 2.7l3.784 4.14a3.879 3.879 0 0 1-.71.977 3.898 3.898 0 0 1-4.165.876.72.72 0 0 0-.77.162l-8.818 8.818a6.13 6.13 0 0 0 0 8.658A6.082 6.082 0 0 0 8.267 47a6.082 6.082 0 0 0 4.33-1.793l8.817-8.818a.72.72 0 0 0 .162-.77 3.898 3.898 0 0 1 .876-4.166 3.899 3.899 0 0 1 4.166-.876.72.72 0 0 0 .77-.162l1.663-1.663c.5-.5.777-1.167.777-1.875s-.276-1.374-.777-1.875l-.708-.708.861-.861L43.76 36.56a4.943 4.943 0 0 1 1.645 3.576 4.942 4.942 0 0 1-1.459 3.655 4.953 4.953 0 0 1-3.638 1.46 4.944 4.944 0 0 1-3.57-1.62L25.915 31.795a.72.72 0 1 0-1.063.972l10.822 11.834a6.372 6.372 0 0 0 4.749 2.09 6.37 6.37 0 0 0 4.54-1.882 6.37 6.37 0 0 0 1.881-4.711zM40.955 6.467l1.379-2.612 2.955 2.956-2.611 1.379-1.723-1.723zM15.36 20.254a.72.72 0 0 0-.783-.189 9.646 9.646 0 0 1-10.169-2.208 9.633 9.633 0 0 1-2.521-9.162l4.817 4.817a2.31 2.31 0 0 0 1.645.681 2.31 2.31 0 0 0 1.644-.681l3.672-3.672a2.31 2.31 0 0 0 .681-1.645 2.31 2.31 0 0 0-.68-1.644L8.847 1.733a9.632 9.632 0 0 1 9.163 2.522 9.613 9.613 0 0 1 2.131 10.37.72.72 0 0 0 .187.803l5.203 4.692-.681.682-.708-.708a2.635 2.635 0 0 0-1.876-.777c-.708 0-1.374.276-1.875.777l-1.663 1.663a.72.72 0 0 0-.162.77 3.89 3.89 0 0 1 .26 1.52l-3.467-3.793zm12.672 7.48l-1.347 1.347a5.34 5.34 0 0 0-5.252 1.354 5.339 5.339 0 0 0-1.353 5.25l-8.502 8.503a4.652 4.652 0 0 1-3.31 1.372 4.651 4.651 0 0 1-3.312-1.372 4.687 4.687 0 0 1 0-6.621l8.503-8.503a5.339 5.339 0 0 0 5.251-1.353 5.34 5.34 0 0 0 1.353-5.251l1.348-1.348a1.213 1.213 0 0 1 1.713 0l1.217 1.218 2.474 2.473 1.217 1.217a1.213 1.213 0 0 1 0 1.714z" fill="#1F1F1F"/><path d="M14.901 31.785a.72.72 0 0 0-1.019 0L7.06 38.607a.72.72 0 1 0 1.019 1.018l6.822-6.822a.72.72 0 0 0 0-1.018zm2.521 2.52a.72.72 0 0 0-1.019 0l-6.822 6.822a.72.72 0 0 0 1.019 1.019l6.822-6.822a.72.72 0 0 0 0-1.019z" fill="#F74B4B"/></g><defs><clipPath id="a"><path fill="#fff" d="M0 0h47v47H0z"/></clipPath></defs></svg>