<svg width="50" height="50" viewBox="0 0 50 50" fill="none" xmlns="http://www.w3.org/2000/svg"><path d="M39.236 13.393H10.764a.733.733 0 1 0 0 1.466h28.472a.733.733 0 1 0 0-1.466zm0 7.981H10.764a.733.733 0 1 0 0 1.466h28.472a.733.733 0 1 0 0-1.466zm-9.334 5.18h-9.804a.733.733 0 1 0 0 1.466h9.804a.733.733 0 1 0 0-1.466zm9.334-9.187H17.998a.733.733 0 1 0 0 1.466h21.238a.733.733 0 1 0 0-1.466zm-24.648 0h-3.824a.733.733 0 1 0 0 1.466h3.824a.733.733 0 1 0 0-1.466z" fill="#1F1F1F"/><path d="M46.216 12.154a.902.902 0 0 0-.637-.26A2.765 2.765 0 0 1 42.81 9.25a.9.9 0 0 0-.902-.86H7.918a.9.9 0 0 0-.903.86 2.788 2.788 0 0 1-2.64 2.641.9.9 0 0 0-.86.902v18.948a.9.9 0 0 0 .86.902 2.789 2.789 0 0 1 2.64 2.642.9.9 0 0 0 .903.86h21.638a.733.733 0 1 0 0-1.467H8.422a4.206 4.206 0 0 0-3.442-3.441v-17.94a4.206 4.206 0 0 0 3.442-3.441h32.982a4.228 4.228 0 0 0 3.616 3.468v12.448a.733.733 0 1 0 1.466 0V12.798a.896.896 0 0 0-.27-.644z" fill="#1F1F1F"/><path d="M47.965 4.731H2.035A2.037 2.037 0 0 0 0 6.766v31.003c0 1.122.913 2.034 2.035 2.034H32.8l-1.09 2.283a.868.868 0 0 0 .925 1.234l2.028-.326 1.13 1.857a.87.87 0 0 0 1.53-.078l1.966-4.118 1.965 4.118a.87.87 0 0 0 1.53.078l1.13-1.856 2.028.326a.868.868 0 0 0 .836-.339.868.868 0 0 0 .088-.896l-1.09-2.282h2.188A2.037 2.037 0 0 0 50 37.769V6.766a2.037 2.037 0 0 0-2.035-2.035zm-11.49 38.418l-.768-1.259a.867.867 0 0 0-.881-.406l-1.302.209 1.371-2.874a2.61 2.61 0 0 0 2.11.774c.274-.026.548.048.772.207.074.052.15.099.228.143l-1.53 3.206zm2.99-4.346h-.008a1.151 1.151 0 0 1-.335 0h-.008a1.141 1.141 0 0 1-.488-.198 2.61 2.61 0 0 0-1.759-.471 1.145 1.145 0 0 1-1.148-.664 2.611 2.611 0 0 0-.338-.544l-.019-.024-.022-.028a2.61 2.61 0 0 0-.91-.692 1.146 1.146 0 0 1-.662-1.148 2.611 2.611 0 0 0-.471-1.759 1.146 1.146 0 0 1 0-1.326c.362-.51.53-1.135.47-1.76a1.147 1.147 0 0 1 .664-1.148 2.611 2.611 0 0 0 1.288-1.288 1.146 1.146 0 0 1 1.148-.663 2.612 2.612 0 0 0 1.76-.471c.396-.282.93-.282 1.326 0a2.61 2.61 0 0 0 1.759.471c.485-.046.946.22 1.149.663a2.61 2.61 0 0 0 1.287 1.288c.443.203.71.664.663 1.149a2.611 2.611 0 0 0 .472 1.758c.282.397.282.93 0 1.327a2.612 2.612 0 0 0-.472 1.759c.046.485-.22.946-.663 1.149a2.61 2.61 0 0 0-.91.693l-.019.023c-.007.01-.015.018-.021.028a2.605 2.605 0 0 0-.337.543c-.203.443-.665.71-1.15.664a2.615 2.615 0 0 0-1.758.47 1.141 1.141 0 0 1-.489.199zm4.288 2.68a.867.867 0 0 0-.881.407l-.768 1.26-1.53-3.207c.078-.044.154-.09.228-.143a1.14 1.14 0 0 1 .771-.207c.8.075 1.57-.223 2.11-.774l1.373 2.874-1.303-.21zm4.781-3.714a.57.57 0 0 1-.569.568h-2.887l-.378-.792.058-.03a2.613 2.613 0 0 0 1.513-2.62 1.146 1.146 0 0 1 .206-.77 2.613 2.613 0 0 0 0-3.026 1.145 1.145 0 0 1-.206-.771 2.613 2.613 0 0 0-1.513-2.62 1.145 1.145 0 0 1-.565-.565 2.614 2.614 0 0 0-2.62-1.512 1.144 1.144 0 0 1-.77-.207 2.613 2.613 0 0 0-3.026 0c-.224.16-.499.233-.771.207a2.613 2.613 0 0 0-2.62 1.512 1.15 1.15 0 0 1-.565.565 2.613 2.613 0 0 0-1.513 2.62c.026.273-.047.547-.206.771a2.613 2.613 0 0 0 0 3.025c.159.224.232.498.206.772a2.613 2.613 0 0 0 1.513 2.62c.02.009.038.02.058.03l-.378.791H2.035a.57.57 0 0 1-.57-.568V6.766a.57.57 0 0 1 .57-.57h45.93a.57.57 0 0 1 .57.57v31.003z" fill="#1F1F1F"/><path fill-rule="evenodd" clip-rule="evenodd" d="M32.5 40.5l1-2-.087-.163h.088l.378-.792-.013-.007a2.613 2.613 0 0 1-1.557-2.643 1.145 1.145 0 0 0-.207-.77 2.613 2.613 0 0 1 0-3.026c.159-.224.232-.498.206-.771a2.613 2.613 0 0 1 1.513-2.62c.25-.114.45-.315.565-.565a2.612 2.612 0 0 1 2.62-1.512c.272.026.547-.048.77-.207a2.613 2.613 0 0 1 3.026 0c.224.16.498.233.771.207a2.613 2.613 0 0 1 2.62 1.512c.115.25.315.45.565.565a2.613 2.613 0 0 1 1.513 2.62c-.026.274.047.547.206.771a2.61 2.61 0 0 1 0 3.025 1.146 1.146 0 0 0-.206.772 2.613 2.613 0 0 1-1.513 2.62l-.045.023a.47.47 0 0 1-.013.006l.378.792h.067L46.5 41.5h.087l.28.586a.868.868 0 0 1-.088.896.868.868 0 0 1-.836.339l-2.028-.326-1.13 1.856a.87.87 0 0 1-1.53-.078l-1.965-4.118-1.966 4.118a.87.87 0 0 1-1.53.078l-1.13-1.856-2.028.325a.869.869 0 0 1-.924-1.234l.757-1.586h.031zm3.207 1.39l.768 1.26 1.53-3.207a2.576 2.576 0 0 1-.228-.143 1.145 1.145 0 0 0-.771-.207c-.8.075-1.57-.223-2.11-.774l-1.372 2.874 1.302-.21a.867.867 0 0 1 .881.407zm3.75-3.086l.007-.001c.173-.027.34-.093.489-.198a2.615 2.615 0 0 1 1.759-.471c.484.046.946-.221 1.149-.664a2.636 2.636 0 0 1 .354-.565.13.13 0 0 1 .004-.006l.009-.011.01-.012a2.61 2.61 0 0 1 .91-.693c.443-.203.71-.664.663-1.15a2.613 2.613 0 0 1 .472-1.758c.282-.396.282-.93 0-1.326a2.612 2.612 0 0 1-.472-1.76 1.146 1.146 0 0 0-.663-1.148 2.61 2.61 0 0 1-1.287-1.287 1.145 1.145 0 0 0-1.15-.664 2.614 2.614 0 0 1-1.758-.471 1.146 1.146 0 0 0-1.327 0 2.61 2.61 0 0 1-1.759.471 1.146 1.146 0 0 0-1.148.664 2.612 2.612 0 0 1-1.288 1.287c-.443.203-.71.664-.663 1.149a2.611 2.611 0 0 1-.472 1.759c-.282.396-.282.93 0 1.326.363.51.53 1.135.472 1.759-.046.485.22.946.663 1.149a2.61 2.61 0 0 1 .92.706l.011.013.006.007.013.017c.133.166.248.348.338.544.202.443.663.71 1.148.664a2.612 2.612 0 0 1 1.759.471c.148.105.316.171.488.198h.008c.111.017.224.017.336 0zm3.415 3.086a.868.868 0 0 1 .881-.407l1.303.21-1.372-2.874a2.61 2.61 0 0 1-2.11.774 1.144 1.144 0 0 0-.772.207c-.074.052-.15.099-.228.143l1.53 3.207.768-1.26z" fill="#F74B4B"/><path d="M39.236 28.058a4.56 4.56 0 0 0-4.554 4.554 4.56 4.56 0 0 0 4.554 4.554 4.56 4.56 0 0 0 4.554-4.554 4.559 4.559 0 0 0-4.554-4.554zm0 7.642a3.092 3.092 0 0 1-3.088-3.088 3.092 3.092 0 0 1 3.088-3.088 3.092 3.092 0 0 1 3.088 3.088 3.092 3.092 0 0 1-3.088 3.088z" fill="#F74B4B"/></svg>