<svg width="58" height="58" viewBox="0 0 58 58" fill="none" xmlns="http://www.w3.org/2000/svg"><path d="M44.186 50c-2.08 0-4.593-.521-7.356-1.564-6.058-2.284-12.648-6.798-18.558-12.707-5.912-5.912-10.425-12.504-12.71-18.562C3.483 11.66 3.478 7.14 5.548 5.07c.298-.297.6-.617.914-.946C8.35 2.137 10.485-.098 13.314.004c1.95.08 3.838 1.29 5.772 3.697 5.714 7.107 3.138 9.64.156 12.577l-.526.52c-.488.489-1.41 2.747 7.164 11.32 2.799 2.8 5.185 4.848 7.092 6.087 1.2.78 3.348 1.96 4.23 1.08l.53-.535c2.932-2.975 5.465-5.543 12.567.166 2.407 1.934 3.616 3.821 3.697 5.774.116 2.827-2.136 4.966-4.124 6.853-.328.313-.647.615-.945.912C47.899 49.484 46.257 50 44.186 50zM13.112 1.682c-2.01 0-3.824 1.91-5.43 3.6-.323.34-.636.67-.944.977-1.542 1.54-1.385 5.589.397 10.316 2.203 5.84 6.58 12.22 12.327 17.966 5.745 5.744 12.123 10.121 17.963 12.323 4.728 1.786 8.776 1.937 10.315.398.307-.308.637-.62.977-.942 1.727-1.641 3.686-3.501 3.6-5.565-.059-1.417-1.091-2.943-3.069-4.532-5.918-4.76-7.573-3.08-10.317-.296l-.539.543c-1.311 1.314-3.442 1.023-6.335-.857-2.006-1.305-4.485-3.428-7.364-6.309-7.116-7.113-9.391-11.467-7.165-13.7l.537-.529c2.79-2.744 4.473-4.401-.288-10.322-1.592-1.977-3.116-3.01-4.534-3.07l-.13-.001z" fill="#A9B1B3" filter="url(#a)"/><defs><filter id="a" x="0" y="0" width="58" height="58" filterUnits="userSpaceOnUse" color-interpolation-filters="sRGB"><feFlood flood-opacity="0" result="BackgroundImageFix"/><feColorMatrix in="SourceAlpha" values="0 0 0 0 0 0 0 0 0 0 0 0 0 0 0 0 0 0 127 0"/><feOffset dy="4"/><feGaussianBlur stdDeviation="2"/><feColorMatrix values="0 0 0 0 0 0 0 0 0 0 0 0 0 0 0 0 0 0 0.25 0"/><feBlend in2="BackgroundImageFix" result="effect1_dropShadow"/><feBlend in="SourceGraphic" in2="effect1_dropShadow" result="shape"/></filter></defs></svg>