<svg width="1397" height="186" viewBox="0 0 1397 186" fill="none" xmlns="http://www.w3.org/2000/svg"><path fill="#fff" d="M0 0h1397v186H0z"/><mask id="a" maskUnits="userSpaceOnUse" x="0" y="0" width="1397" height="186"><path fill="#fff" d="M0 0h1397v186H0z"/></mask><g mask="url(#a)"><path fill="#206BC4" d="M58.496-44l5.63 5.683-273.496 270.97-5.63-5.683z"/><path fill="#F74B4B" d="M80.496-44l5.63 5.683-273.496 270.97-5.63-5.683z"/><path fill="#206BC4" d="M101.496-44l5.63 5.683-273.496 270.97-5.63-5.683z"/><path fill="#F74B4B" d="M123.496-44l5.63 5.683-273.496 270.97-5.63-5.683z"/><path fill="#206BC4" d="M144.496-44l5.63 5.683-273.496 270.97-5.63-5.683z"/><path fill="#F74B4B" d="M166.496-44l5.63 5.683-273.496 270.97-5.63-5.683z"/><path fill="#206BC4" d="M187.496-44l5.63 5.683-273.496 270.97-5.63-5.683z"/><path fill="#F74B4B" d="M209.496-44l5.63 5.683-273.496 270.97-5.63-5.683z"/><path fill="#206BC4" d="M230.496-44l5.63 5.683-273.496 270.97-5.63-5.683z"/><path fill="#F74B4B" d="M252.496-44l5.63 5.683-273.496 270.97-5.63-5.683z"/><path fill="#206BC4" d="M273.496-44l5.63 5.683L5.63 232.653 0 226.97z"/><path fill="#F74B4B" d="M295.496-44l5.63 5.683L27.63 232.653 22 226.97z"/><path fill="#206BC4" d="M316.496-44l5.63 5.683L48.63 232.653 43 226.97z"/><path fill="#F74B4B" d="M338.496-44l5.63 5.683L70.63 232.653 65 226.97z"/><path fill="#206BC4" d="M359.496-44l5.63 5.683L91.63 232.653 86 226.97z"/><path fill="#F74B4B" d="M381.496-44l5.63 5.683-273.496 270.97-5.63-5.683z"/><path fill="#206BC4" d="M402.496-44l5.63 5.683-273.496 270.97-5.63-5.683z"/><path fill="#F74B4B" d="M424.496-44l5.63 5.683-273.496 270.97-5.63-5.683z"/><path fill="#206BC4" d="M445.496-44l5.63 5.683-273.496 270.97-5.63-5.683z"/><path fill="#F74B4B" d="M467.496-44l5.63 5.683-273.496 270.97-5.63-5.683z"/><path fill="#206BC4" d="M488.496-44l5.63 5.683-273.496 270.97-5.63-5.683z"/><path fill="#F74B4B" d="M510.496-44l5.63 5.683-273.496 270.97-5.63-5.683z"/><path fill="#206BC4" d="M531.496-44l5.63 5.683-273.496 270.97-5.63-5.683z"/><path fill="#F74B4B" d="M553.496-44l5.63 5.683-273.496 270.97-5.63-5.683z"/><path fill="#206BC4" d="M574.496-44l5.63 5.683-273.496 270.97-5.63-5.683z"/><path fill="#F74B4B" d="M596.496-44l5.63 5.683-273.496 270.97-5.63-5.683z"/><path fill="#206BC4" d="M617.496-44l5.63 5.683-273.496 270.97-5.63-5.683z"/><path fill="#F74B4B" d="M639.496-44l5.63 5.683-273.496 270.97-5.63-5.683z"/><path fill="#206BC4" d="M660.496-44l5.63 5.683-273.496 270.97-5.63-5.683z"/><path fill="#F74B4B" d="M682.496-44l5.63 5.683-273.496 270.97-5.63-5.683z"/><path fill="#206BC4" d="M703.496-44l5.63 5.683-273.496 270.97-5.63-5.683z"/><path fill="#F74B4B" d="M725.496-44l5.63 5.683-273.496 270.97-5.63-5.683z"/><path fill="#206BC4" d="M746.496-44l5.63 5.683-273.496 270.97-5.63-5.683z"/><path fill="#F74B4B" d="M768.496-44l5.63 5.683-273.496 270.97-5.63-5.683z"/><path fill="#206BC4" d="M789.496-44l5.63 5.683-273.496 270.97-5.63-5.683z"/><path fill="#F74B4B" d="M811.496-44l5.63 5.683-273.496 270.97-5.63-5.683z"/><path fill="#206BC4" d="M832.496-44l5.63 5.683-273.496 270.97-5.63-5.683z"/><path fill="#F74B4B" d="M854.496-44l5.63 5.683-273.496 270.97-5.63-5.683z"/><path fill="#206BC4" d="M875.496-44l5.63 5.683-273.496 270.97-5.63-5.683z"/><path fill="#F74B4B" d="M897.496-44l5.63 5.683-273.496 270.97-5.63-5.683z"/><path fill="#206BC4" d="M918.496-44l5.63 5.683-273.496 270.97-5.63-5.683z"/><path fill="#F74B4B" d="M940.496-44l5.63 5.683-273.496 270.97-5.63-5.683z"/><path fill="#206BC4" d="M961.496-44l5.63 5.683-273.496 270.97-5.63-5.683z"/><path fill="#F74B4B" d="M983.496-44l5.63 5.683-273.496 270.97-5.63-5.683z"/><path fill="#206BC4" d="M1004.5-44l5.63 5.683-273.496 270.97-5.63-5.683z"/><path fill="#F74B4B" d="M1026.5-44l5.63 5.683-273.496 270.97-5.63-5.683z"/><path fill="#206BC4" d="M1047.5-44l5.63 5.683-273.496 270.97-5.63-5.683z"/><path fill="#F74B4B" d="M1069.5-44l5.63 5.683-273.496 270.97-5.63-5.683z"/><path fill="#206BC4" d="M1090.5-44l5.63 5.683-273.496 270.97-5.63-5.683z"/><path fill="#F74B4B" d="M1112.5-44l5.63 5.683-273.496 270.97-5.63-5.683z"/><path fill="#206BC4" d="M1133.5-44l5.63 5.683-273.496 270.97-5.63-5.683z"/><path fill="#F74B4B" d="M1155.5-44l5.63 5.683-273.496 270.97-5.63-5.683z"/><path fill="#206BC4" d="M1176.5-44l5.63 5.683-273.496 270.97-5.63-5.683z"/><path fill="#F74B4B" d="M1198.5-44l5.63 5.683-273.496 270.97-5.63-5.683z"/><path fill="#206BC4" d="M1219.5-44l5.63 5.683-273.496 270.97-5.63-5.683z"/><path fill="#F74B4B" d="M1241.5-44l5.63 5.683-273.496 270.97-5.63-5.683z"/><path fill="#206BC4" d="M1262.5-44l5.63 5.683-273.496 270.97-5.63-5.683z"/><path fill="#F74B4B" d="M1284.5-44l5.63 5.683-273.496 270.97-5.63-5.683z"/><path fill="#206BC4" d="M1305.5-44l5.63 5.683-273.496 270.97-5.63-5.683z"/><path fill="#F74B4B" d="M1327.5-44l5.63 5.683-273.496 270.97-5.63-5.683z"/><path fill="#206BC4" d="M1348.5-44l5.63 5.683-273.496 270.97-5.63-5.683z"/><path fill="#F74B4B" d="M1370.5-44l5.63 5.683-273.496 270.97-5.63-5.683z"/><path fill="#206BC4" d="M1391.5-44l5.63 5.683-273.496 270.97-5.63-5.683z"/><path fill="#F74B4B" d="M1413.5-44l5.63 5.683-273.496 270.97-5.63-5.683z"/><path fill="#206BC4" d="M1434.5-44l5.63 5.683-273.496 270.97-5.63-5.683z"/><path fill="#F74B4B" d="M1456.5-44l5.63 5.683-273.496 270.97-5.63-5.683z"/><path fill="#206BC4" d="M1477.5-44l5.63 5.683-273.496 270.97-5.63-5.683z"/><path fill="#F74B4B" d="M1499.5-44l5.63 5.683-273.496 270.97-5.63-5.683z"/><path fill="#206BC4" d="M1520.5-44l5.63 5.683-273.496 270.97-5.63-5.683z"/><path fill="#F74B4B" d="M1542.5-44l5.63 5.683-273.496 270.97-5.63-5.683z"/><path fill="#206BC4" d="M1563.5-44l5.63 5.683-273.496 270.97-5.63-5.683z"/><path fill="#F74B4B" d="M1585.5-44l5.63 5.683-273.496 270.97-5.63-5.683z"/><path fill="#206BC4" d="M1606.5-44l5.63 5.683-273.496 270.97-5.63-5.683z"/><path fill="#F74B4B" d="M1628.5-44l5.63 5.683-273.496 270.97-5.63-5.683z"/><path fill="#206BC4" d="M1649.5-44l5.63 5.683-273.496 270.97-5.63-5.683z"/></g></svg>