<svg width="208" height="66" viewBox="0 0 208 66" fill="none" xmlns="http://www.w3.org/2000/svg"><path d="M7.062 0v14.394H42.59v45.77h14.394V0H7.063z" fill="#E63728"/><path d="M21.402 61.08C9.596 61.08 0 51.647 0 40.002c0-11.591 9.596-21.08 21.402-21.08 11.807 0 21.026 9.435 21.026 21.08 0 11.59-9.22 21.078-21.026 21.078zm0-28.302a7.225 7.225 0 1 0 .001 14.449 7.225 7.225 0 0 0 0-14.45z" fill="#E63728"/><path d="M89.28 60.517h4.312V48.89h4.844v-3.924H89.28v15.55zm37.497-15.987c-2.35 0-4.336.823-5.886 2.422-1.55 1.599-2.326 3.56-2.326 5.838 0 2.276.8 4.239 2.374 5.813 1.575 1.575 3.537 2.398 5.862 2.398 2.35 0 4.312-.8 5.886-2.398 1.551-1.599 2.35-3.537 2.35-5.79 0-2.3-.799-4.262-2.35-5.861-1.598-1.623-3.585-2.422-5.91-2.422zm2.786 11.142c-.727.8-1.648 1.163-2.81 1.163-1.187 0-2.132-.388-2.834-1.163-.727-.8-1.066-1.744-1.066-2.907 0-1.162.363-2.131 1.09-2.93.727-.8 1.647-1.188 2.81-1.188 1.187 0 2.131.388 2.834 1.187.726.8 1.066 1.769 1.066 2.931.024 1.139-.34 2.108-1.09 2.907zm7.678 4.845h4.336V48.89h5.595v11.627h4.312V44.966h-14.243v15.55zm63.415-8.212l6.225-7.34h-5.232l-5.014 6.274v-6.273h-4.336v15.55h4.336v-6.83l5.063 6.83h5.474l-6.516-8.21zm-34.832-5.959c-1.163-1.162-2.907-1.816-4.627-1.816-4.457 0-7.46 3.39-7.46 8.235 0 4.772 3.076 8.236 7.46 8.236 1.72 0 3.464-.654 4.627-1.913v1.453h4.311V44.99h-4.311v1.356zm-3.827 10.489c-1.187 0-2.132-.388-2.835-1.163-.726-.8-1.065-1.744-1.065-2.907 0-1.162.363-2.131 1.09-2.93.726-.8 1.647-1.188 2.834-1.188s2.131.388 2.834 1.187c.726.8 1.066 1.769 1.066 2.931 0 1.139-.364 2.108-1.09 2.883-.751.8-1.672 1.187-2.834 1.187zm15.962-11.869h-4.311v20.468h4.311v-6.37c1.163 1.259 2.907 1.913 4.627 1.913 4.408 0 7.485-3.464 7.485-8.236 0-4.844-3.004-8.236-7.485-8.236-1.72 0-3.464.654-4.627 1.817v-1.356zm1.018 10.706c-.727-.8-1.09-1.768-1.09-2.882 0-1.163.363-2.132 1.09-2.931.702-.8 1.647-1.187 2.834-1.187s2.107.387 2.834 1.187c.726.799 1.09 1.768 1.09 2.93 0 1.163-.339 2.108-1.066 2.907-.702.776-1.647 1.163-2.834 1.163-1.211-.024-2.132-.412-2.858-1.187zm-74.025-10.706h-4.312v20.468h4.312v-6.37c1.163 1.259 2.907 1.913 4.627 1.913 4.408 0 7.484-3.464 7.484-8.236 0-4.844-3.003-8.236-7.484-8.236-1.72 0-3.464.654-4.627 1.817v-1.356zm1.017 10.706c-.726-.8-1.09-1.768-1.09-2.882 0-1.163.364-2.132 1.066-2.931.703-.8 1.647-1.187 2.834-1.187s2.108.387 2.834 1.187c.727.799 1.09 1.768 1.09 2.93 0 1.163-.339 2.108-1.066 2.907-.702.776-1.647 1.163-2.834 1.163-1.186-.024-2.107-.412-2.834-1.187zm-22.963 4.845h4.869L79.615 40h-3.73l-8.527 20.517h4.87l1.719-4.36h7.364l1.695 4.36zm-7.533-8.285l2.132-5.45 2.131 5.45h-4.263z" fill="#000"/><path d="M77.156 24.782h4.9L81.818 26h-7.042l.196-.952 4.774-3.822c.644-.523 1.087-.966 1.33-1.33a2.07 2.07 0 0 0 .378-1.176c0-.439-.163-.784-.49-1.036-.317-.252-.793-.378-1.428-.378-.476 0-.938.098-1.386.294a3.392 3.392 0 0 0-1.148.798l-.938-.812c.41-.467.938-.83 1.582-1.092a5.328 5.328 0 0 1 2.086-.406c.98 0 1.745.224 2.296.672.55.448.826 1.04.826 1.778 0 .597-.159 1.162-.476 1.694-.317.523-.882 1.106-1.694 1.75l-3.528 2.8zm10.21 1.33c-1.036 0-1.848-.317-2.436-.952-.588-.635-.882-1.517-.882-2.646a8.14 8.14 0 0 1 .616-3.178c.41-.99.99-1.778 1.736-2.366a4.125 4.125 0 0 1 2.604-.882c1.036 0 1.843.317 2.422.952.588.635.882 1.517.882 2.646a8.242 8.242 0 0 1-.616 3.192c-.41.98-.994 1.764-1.75 2.352a4.047 4.047 0 0 1-2.576.882zm.112-1.246c.69 0 1.297-.261 1.82-.784.523-.523.92-1.18 1.19-1.974.28-.803.42-1.6.42-2.394 0-.765-.177-1.353-.532-1.764-.355-.41-.85-.616-1.484-.616-.7 0-1.311.261-1.834.784-.523.523-.924 1.185-1.204 1.988a7.333 7.333 0 0 0-.406 2.38c0 .765.177 1.353.532 1.764.355.41.854.616 1.498.616zm17.858-6.286L103.852 26h-1.344l1.246-6.244h-3.192l-.406 1.652c-.27 1.092-.541 1.974-.812 2.646-.27.672-.588 1.185-.952 1.54a1.779 1.779 0 0 1-1.288.518c-.243 0-.527-.042-.854-.126l.322-1.134c.121.028.233.042.336.042.476 0 .863-.29 1.162-.868.299-.588.602-1.493.91-2.716l.672-2.73h5.684zm2.794 4.13v.084c0 .69.196 1.218.588 1.582.392.355.98.532 1.764.532a3.66 3.66 0 0 0 1.288-.224 3.026 3.026 0 0 0 1.008-.63l.574.966a3.831 3.831 0 0 1-1.33.784 4.87 4.87 0 0 1-1.652.28c-.728 0-1.358-.13-1.89-.392a2.874 2.874 0 0 1-1.232-1.12c-.289-.485-.434-1.055-.434-1.708 0-.83.178-1.577.532-2.24a4.003 4.003 0 0 1 1.498-1.554 4.221 4.221 0 0 1 2.156-.56c1.008 0 1.811.29 2.408.868.607.57.91 1.349.91 2.338 0 .299-.032.63-.098.994h-6.09zm2.814-3.08c-.662 0-1.232.187-1.708.56-.476.373-.798.887-.966 1.54h4.788c.038-.663-.14-1.176-.532-1.54-.382-.373-.91-.56-1.582-.56zm11.279.126h-2.744L118.261 26h-1.344l1.218-6.244h-2.688l.224-1.176h6.776l-.224 1.176zm5.918-1.176h1.344l-.63 3.15h4.228l.63-3.15h1.344L133.573 26h-1.344l.63-3.108h-4.228l-.63 3.108h-1.344l1.484-7.42zm16.851 0l-1.47 7.42h-1.288l.182-.91a3.65 3.65 0 0 1-1.176.742 3.996 3.996 0 0 1-1.442.252c-.634 0-1.199-.126-1.694-.378a2.86 2.86 0 0 1-1.162-1.12c-.28-.485-.42-1.055-.42-1.708 0-.84.182-1.591.546-2.254a4.003 4.003 0 0 1 1.498-1.554 4.221 4.221 0 0 1 2.156-.56c.635 0 1.176.112 1.624.336.458.224.808.555 1.05.994l.252-1.26h1.344zm-4.9 6.328c.551 0 1.046-.13 1.484-.392a2.72 2.72 0 0 0 1.036-1.12c.252-.476.378-1.017.378-1.624 0-.663-.191-1.176-.574-1.54-.382-.364-.928-.546-1.638-.546a2.77 2.77 0 0 0-1.484.406 2.76 2.76 0 0 0-1.036 1.106c-.252.476-.378 1.017-.378 1.624 0 .653.192 1.167.574 1.54.392.364.938.546 1.638.546zm15.568-6.398c.634 0 1.199.13 1.694.392.494.252.882.62 1.162 1.106.28.476.42 1.04.42 1.694 0 .84-.182 1.591-.546 2.254a4.069 4.069 0 0 1-1.512 1.568c-.635.373-1.349.56-2.142.56-.635 0-1.181-.112-1.638-.336a2.427 2.427 0 0 1-1.05-1.008l-.784 3.976h-1.344l2.016-10.136h1.288l-.182.924c.69-.663 1.563-.994 2.618-.994zm-.98 6.398c.55 0 1.045-.13 1.484-.392.438-.27.784-.644 1.036-1.12.252-.476.378-1.017.378-1.624 0-.663-.192-1.176-.574-1.54-.383-.364-.929-.546-1.638-.546a2.84 2.84 0 0 0-1.498.406c-.439.261-.784.63-1.036 1.106-.243.476-.364 1.017-.364 1.624 0 .653.191 1.167.574 1.54.392.364.938.546 1.638.546zm14.551-6.328h1.344l-1.47 7.42h-1.344l1.47-7.42zm-4.592 2.506c1.69 0 2.534.681 2.534 2.044 0 .57-.144 1.073-.434 1.512-.289.43-.7.765-1.232 1.008-.532.233-1.152.35-1.862.35h-3.234l1.484-7.392h1.33l-.49 2.478h1.904zm-.994 3.906c.654 0 1.181-.159 1.582-.476.402-.317.602-.742.602-1.274 0-.392-.13-.681-.392-.868-.261-.196-.662-.294-1.204-.294h-1.694l-.574 2.912h1.68zm9.823-6.412h1.344l-.63 3.15h4.228l.63-3.15h1.344L178.9 26h-1.344l.63-3.108h-4.228l-.63 3.108h-1.344l1.484-7.42zm12.96 3.668L188.724 26h-1.554l-1.806-3.136h-1.61l-.63 3.136h-1.344l1.498-7.42h1.344l-.63 3.136h1.512l3.052-3.136h1.498l-3.626 3.668zm5.112.462v.084c0 .69.196 1.218.588 1.582.392.355.98.532 1.764.532.457 0 .886-.075 1.288-.224a3.047 3.047 0 0 0 1.008-.63l.574.966a3.84 3.84 0 0 1-1.33.784 4.878 4.878 0 0 1-1.652.28c-.728 0-1.358-.13-1.89-.392a2.868 2.868 0 0 1-1.232-1.12c-.29-.485-.434-1.055-.434-1.708 0-.83.177-1.577.532-2.24a3.996 3.996 0 0 1 1.498-1.554 4.219 4.219 0 0 1 2.156-.56c1.008 0 1.81.29 2.408.868.606.57.91 1.349.91 2.338a5.7 5.7 0 0 1-.098.994h-6.09zm2.814-3.08c-.663 0-1.232.187-1.708.56-.476.373-.798.887-.966 1.54h4.788c.037-.663-.14-1.176-.532-1.54-.383-.373-.91-.56-1.582-.56zm6.538-3.43h1.596l-1.61 6.706h-1.064l1.078-6.706zm-1.036 9.884a.839.839 0 0 1-.616-.252.806.806 0 0 1-.252-.588.93.93 0 0 1 .266-.686.913.913 0 0 1 .672-.266c.252 0 .458.08.616.238a.777.777 0 0 1 .252.588c0 .27-.093.5-.28.686a.87.87 0 0 1-.658.28z" fill="#E63728"/></svg>