<svg width="208" height="66" viewBox="0 0 208 66" fill="none" xmlns="http://www.w3.org/2000/svg">
<g clip-path="url(#clip0_17_15)">
<path d="M80.0227 33.1818C80.0227 34.4773 79.7708 35.5701 79.267 36.4602C78.7633 37.3466 78.0833 38.0189 77.2273 38.4773C76.3712 38.9318 75.4167 39.1591 74.3636 39.1591C73.303 39.1591 72.3447 38.9299 71.4886 38.4716C70.6364 38.0095 69.9583 37.3352 69.4545 36.4489C68.9545 35.5587 68.7045 34.4697 68.7045 33.1818C68.7045 31.8864 68.9545 30.7955 69.4545 29.9091C69.9583 29.0189 70.6364 28.3466 71.4886 27.892C72.3447 27.4337 73.303 27.2045 74.3636 27.2045C75.4167 27.2045 76.3712 27.4337 77.2273 27.892C78.0833 28.3466 78.7633 29.0189 79.267 29.9091C79.7708 30.7955 80.0227 31.8864 80.0227 33.1818ZM76.7727 33.1818C76.7727 32.4848 76.6799 31.8977 76.4943 31.4205C76.3125 30.9394 76.0417 30.5758 75.6818 30.3295C75.3258 30.0795 74.8864 29.9545 74.3636 29.9545C73.8409 29.9545 73.3996 30.0795 73.0398 30.3295C72.6837 30.5758 72.4129 30.9394 72.2273 31.4205C72.0455 31.8977 71.9545 32.4848 71.9545 33.1818C71.9545 33.8788 72.0455 34.4678 72.2273 34.9489C72.4129 35.4261 72.6837 35.7898 73.0398 36.0398C73.3996 36.286 73.8409 36.4091 74.3636 36.4091C74.8864 36.4091 75.3258 36.286 75.6818 36.0398C76.0417 35.7898 76.3125 35.4261 76.4943 34.9489C76.6799 34.4678 76.7727 33.8788 76.7727 33.1818ZM92.7571 33.1818C92.7571 34.4773 92.5052 35.5701 92.0014 36.4602C91.4976 37.3466 90.8177 38.0189 89.9616 38.4773C89.1056 38.9318 88.151 39.1591 87.098 39.1591C86.0374 39.1591 85.0791 38.9299 84.223 38.4716C83.3707 38.0095 82.6927 37.3352 82.1889 36.4489C81.6889 35.5587 81.4389 34.4697 81.4389 33.1818C81.4389 31.8864 81.6889 30.7955 82.1889 29.9091C82.6927 29.0189 83.3707 28.3466 84.223 27.892C85.0791 27.4337 86.0374 27.2045 87.098 27.2045C88.151 27.2045 89.1056 27.4337 89.9616 27.892C90.8177 28.3466 91.4976 29.0189 92.0014 29.9091C92.5052 30.7955 92.7571 31.8864 92.7571 33.1818ZM89.5071 33.1818C89.5071 32.4848 89.4143 31.8977 89.2287 31.4205C89.0469 30.9394 88.776 30.5758 88.4162 30.3295C88.0601 30.0795 87.6207 29.9545 87.098 29.9545C86.5753 29.9545 86.134 30.0795 85.7741 30.3295C85.4181 30.5758 85.1473 30.9394 84.9616 31.4205C84.7798 31.8977 84.6889 32.4848 84.6889 33.1818C84.6889 33.8788 84.7798 34.4678 84.9616 34.9489C85.1473 35.4261 85.4181 35.7898 85.7741 36.0398C86.134 36.286 86.5753 36.4091 87.098 36.4091C87.6207 36.4091 88.0601 36.286 88.4162 36.0398C88.776 35.7898 89.0469 35.4261 89.2287 34.9489C89.4143 34.4678 89.5071 33.8788 89.5071 33.1818ZM105.491 33.1818C105.491 34.4773 105.24 35.5701 104.736 36.4602C104.232 37.3466 103.552 38.0189 102.696 38.4773C101.84 38.9318 100.885 39.1591 99.8324 39.1591C98.7718 39.1591 97.8134 38.9299 96.9574 38.4716C96.1051 38.0095 95.4271 37.3352 94.9233 36.4489C94.4233 35.5587 94.1733 34.4697 94.1733 33.1818C94.1733 31.8864 94.4233 30.7955 94.9233 29.9091C95.4271 29.0189 96.1051 28.3466 96.9574 27.892C97.8134 27.4337 98.7718 27.2045 99.8324 27.2045C100.885 27.2045 101.84 27.4337 102.696 27.892C103.552 28.3466 104.232 29.0189 104.736 29.9091C105.24 30.7955 105.491 31.8864 105.491 33.1818ZM102.241 33.1818C102.241 32.4848 102.149 31.8977 101.963 31.4205C101.781 30.9394 101.51 30.5758 101.151 30.3295C100.795 30.0795 100.355 29.9545 99.8324 29.9545C99.3097 29.9545 98.8684 30.0795 98.5085 30.3295C98.1525 30.5758 97.8816 30.9394 97.696 31.4205C97.5142 31.8977 97.4233 32.4848 97.4233 33.1818C97.4233 33.8788 97.5142 34.4678 97.696 34.9489C97.8816 35.4261 98.1525 35.7898 98.5085 36.0398C98.8684 36.286 99.3097 36.4091 99.8324 36.4091C100.355 36.4091 100.795 36.286 101.151 36.0398C101.51 35.7898 101.781 35.4261 101.963 34.9489C102.149 34.4678 102.241 33.8788 102.241 33.1818ZM112.004 27.3636V32.0682H109.959V27.3636H112.004ZM114.959 27.3636V32.0682H112.913V27.3636H114.959ZM116.297 39V27.3636H119.456V31.9091H123.638V27.3636H126.797V39H123.638V34.4545H119.456V39H116.297ZM132.547 39.1591C131.6 39.1591 130.789 38.9716 130.115 38.5966C129.441 38.2178 128.924 37.6913 128.564 37.017C128.204 36.339 128.024 35.553 128.024 34.6591C128.024 33.7652 128.204 32.9811 128.564 32.3068C128.924 31.6288 129.441 31.1023 130.115 30.7273C130.789 30.3485 131.6 30.1591 132.547 30.1591C133.494 30.1591 134.304 30.3485 134.979 30.7273C135.653 31.1023 136.17 31.6288 136.53 32.3068C136.89 32.9811 137.07 33.7652 137.07 34.6591C137.07 35.553 136.89 36.339 136.53 37.017C136.17 37.6913 135.653 38.2178 134.979 38.5966C134.304 38.9716 133.494 39.1591 132.547 39.1591ZM132.57 36.8409C132.835 36.8409 133.064 36.7519 133.257 36.5739C133.45 36.3958 133.6 36.142 133.706 35.8125C133.812 35.483 133.865 35.0909 133.865 34.6364C133.865 34.178 133.812 33.786 133.706 33.4602C133.6 33.1307 133.45 32.8769 133.257 32.6989C133.064 32.5208 132.835 32.4318 132.57 32.4318C132.289 32.4318 132.049 32.5208 131.848 32.6989C131.647 32.8769 131.494 33.1307 131.388 33.4602C131.282 33.786 131.229 34.178 131.229 34.6364C131.229 35.0909 131.282 35.483 131.388 35.8125C131.494 36.142 131.647 36.3958 131.848 36.5739C132.049 36.7519 132.289 36.8409 132.57 36.8409ZM138.342 42.2727V30.2727H141.456V31.7955H141.524C141.638 31.5 141.804 31.2292 142.024 30.983C142.244 30.733 142.517 30.5341 142.842 30.3864C143.168 30.2348 143.547 30.1591 143.979 30.1591C144.554 30.1591 145.102 30.3125 145.621 30.6193C146.143 30.9261 146.568 31.4091 146.893 32.0682C147.223 32.7273 147.388 33.5833 147.388 34.6364C147.388 35.6439 147.231 36.4792 146.916 37.142C146.606 37.8049 146.189 38.2992 145.666 38.625C145.147 38.9508 144.577 39.1136 143.956 39.1136C143.547 39.1136 143.181 39.0473 142.859 38.9148C142.541 38.7784 142.268 38.5947 142.041 38.3636C141.818 38.1288 141.645 37.8636 141.524 37.5682H141.479V42.2727H138.342ZM141.411 34.6364C141.411 35.0606 141.465 35.428 141.575 35.7386C141.689 36.0455 141.848 36.2841 142.053 36.4545C142.261 36.6212 142.509 36.7045 142.797 36.7045C143.085 36.7045 143.329 36.6231 143.53 36.4602C143.734 36.2936 143.89 36.0568 143.996 35.75C144.106 35.4394 144.161 35.0682 144.161 34.6364C144.161 34.2045 144.106 33.8352 143.996 33.5284C143.89 33.2178 143.734 32.9811 143.53 32.8182C143.329 32.6515 143.085 32.5682 142.797 32.5682C142.509 32.5682 142.261 32.6515 142.053 32.8182C141.848 32.9811 141.689 33.2178 141.575 33.5284C141.465 33.8352 141.411 34.2045 141.411 34.6364ZM154.111 35.75L156.02 30.2727H158.247L155.088 39H153.134L150.065 30.2727H152.293L154.111 35.75ZM151.656 30.2727V39H148.702V30.2727H151.656ZM156.77 39V30.2727H159.679V39H156.77ZM168.578 39.1591C167.631 39.1591 166.821 38.9716 166.146 38.5966C165.472 38.2178 164.955 37.6913 164.595 37.017C164.235 36.339 164.055 35.553 164.055 34.6591C164.055 33.7652 164.235 32.9811 164.595 32.3068C164.955 31.6288 165.472 31.1023 166.146 30.7273C166.821 30.3485 167.631 30.1591 168.578 30.1591C169.434 30.1591 170.175 30.3144 170.8 30.625C171.429 30.9318 171.915 31.3674 172.26 31.9318C172.605 32.4924 172.779 33.1515 172.783 33.9091H169.874C169.832 33.4508 169.699 33.1023 169.476 32.8636C169.256 32.6212 168.972 32.5 168.624 32.5C168.351 32.5 168.112 32.5795 167.908 32.7386C167.703 32.8939 167.544 33.1307 167.43 33.4489C167.317 33.7633 167.26 34.1591 167.26 34.6364C167.26 35.1136 167.317 35.5114 167.43 35.8295C167.544 36.1439 167.703 36.3807 167.908 36.5398C168.112 36.6951 168.351 36.7727 168.624 36.7727C168.855 36.7727 169.059 36.7197 169.237 36.6136C169.415 36.5038 169.559 36.3447 169.669 36.1364C169.783 35.9242 169.851 35.6667 169.874 35.3636H172.783C172.771 36.1326 172.595 36.803 172.254 37.375C171.913 37.9432 171.43 38.3826 170.805 38.6932C170.184 39.0038 169.442 39.1591 168.578 39.1591ZM176.509 39.1364C175.952 39.1364 175.459 39.0455 175.031 38.8636C174.607 38.678 174.274 38.3977 174.031 38.0227C173.789 37.6477 173.668 37.1705 173.668 36.5909C173.668 36.1136 173.749 35.7064 173.912 35.3693C174.075 35.0284 174.302 34.75 174.594 34.5341C174.885 34.3182 175.224 34.1534 175.611 34.0398C176.001 33.9261 176.421 33.8523 176.872 33.8182C177.361 33.7803 177.753 33.7348 178.048 33.6818C178.348 33.625 178.563 33.5473 178.696 33.4489C178.829 33.3466 178.895 33.2121 178.895 33.0455V33.0227C178.895 32.7955 178.808 32.6212 178.634 32.5C178.459 32.3788 178.236 32.3182 177.963 32.3182C177.664 32.3182 177.42 32.3845 177.23 32.517C177.045 32.6458 176.933 32.8447 176.895 33.1136H174.009C174.046 32.5833 174.215 32.0947 174.514 31.6477C174.817 31.197 175.259 30.8371 175.838 30.5682C176.418 30.2955 177.141 30.1591 178.009 30.1591C178.634 30.1591 179.194 30.233 179.69 30.3807C180.187 30.5246 180.609 30.7273 180.957 30.9886C181.306 31.2462 181.571 31.5492 181.753 31.8977C181.938 32.2424 182.031 32.6174 182.031 33.0227V39H179.099V37.7727H179.031C178.857 38.0985 178.645 38.3617 178.395 38.5625C178.149 38.7633 177.866 38.9091 177.548 39C177.234 39.0909 176.887 39.1364 176.509 39.1364ZM177.531 37.1591C177.77 37.1591 177.993 37.1098 178.202 37.0114C178.414 36.9129 178.586 36.7708 178.719 36.5852C178.851 36.3996 178.918 36.1742 178.918 35.9091V35.1818C178.834 35.2159 178.745 35.2481 178.651 35.2784C178.56 35.3087 178.461 35.3371 178.355 35.3636C178.253 35.3902 178.143 35.4148 178.026 35.4375C177.912 35.4602 177.793 35.4811 177.668 35.5C177.425 35.5379 177.226 35.6004 177.071 35.6875C176.92 35.7708 176.806 35.875 176.73 36C176.658 36.1212 176.622 36.2576 176.622 36.4091C176.622 36.6515 176.707 36.8371 176.878 36.9659C177.048 37.0947 177.266 37.1591 177.531 37.1591ZM186.484 35L188.916 30.2727H191.871V39H188.916V34.25L186.484 39H183.53V30.2727H186.484V35ZM188.825 27.1364H190.803C190.799 27.875 190.517 28.4659 189.956 28.9091C189.395 29.3485 188.64 29.5682 187.689 29.5682C186.731 29.5682 185.971 29.3485 185.411 28.9091C184.85 28.4659 184.571 27.875 184.575 27.1364H186.53C186.526 27.375 186.611 27.5947 186.786 27.7955C186.964 27.9924 187.265 28.0909 187.689 28.0909C188.094 28.0909 188.384 27.9943 188.558 27.8011C188.732 27.608 188.821 27.3864 188.825 27.1364ZM192.801 32.6136V30.2727H201.256V32.6136H198.483V39H195.528V32.6136H192.801ZM204.239 27.3636V32.0682H202.193V27.3636H204.239ZM207.193 27.3636V32.0682H205.148V27.3636H207.193Z" fill="black"/>
<path d="M0 50.8874V20.6164L3.69215 22.7491L7.52189 24.9736V45.7505L26.1661 56.5288V66L0 50.8874Z" fill="#184473"/>
<path d="M29.0556 8.46213L10.2967 19.2863L9.17304 18.6442L8.82905 18.4378L3.0271 15.0896L29.1703 0L55.2905 15.0896L52.5386 16.672L47.9062 19.3551L29.0556 8.46213Z" fill="#03B6F0"/>
<path d="M31.9224 56.5288L50.5666 45.7505V24.9736L54.5798 22.6574L55.0843 22.3593L58.0885 20.6164V50.8874L31.9224 66V56.5288Z" fill="#0582D2"/>
<path d="M29.0557 33V51.0709L44.6957 42.0354V23.9646L29.0557 33Z" fill="#0582D2"/>
<path d="M29.0554 14.9291L44.6954 23.9646L29.0554 33L13.3925 23.9646L29.0554 14.9291Z" fill="#03B6F0"/>
</g>
<defs>
<clipPath id="clip0_17_15">
<rect width="208" height="66" fill="white"/>
</clipPath>
</defs>
</svg>
